<svg xmlns:xlink="http://www.w3.org/1999/xlink" width="432pt" height="288pt" viewBox="0 0 432 288" xmlns="http://www.w3.org/2000/svg" version="1.1">
 <metadata>
  <rdf:rdf xmlns:dc="http://purl.org/dc/elements/1.1/" xmlns:cc="http://creativecommons.org/ns#" xmlns:rdf="http://www.w3.org/1999/02/22-rdf-syntax-ns#">
   <cc:work>
    <dc:type rdf:resource="http://purl.org/dc/dcmitype/StillImage"></dc:type>
    <dc:date>2022-11-27T16:08:49.266470</dc:date>
    <dc:format>image/svg+xml</dc:format>
    <dc:creator>
     <cc:agent>
      <dc:title>Matplotlib v3.6.2, https://matplotlib.org/</dc:title>
     </cc:agent>
    </dc:creator>
   </cc:work>
  </rdf:rdf>
 </metadata>
 <defs>
  <style type="text/css">*{stroke-linejoin: round; stroke-linecap: butt}</style>
 </defs>
 <g id="figure_1">
  <g id="patch_1">
   <path d="M 0 288 
L 432 288 
L 432 0 
L 0 0 
z
" style="fill: #ffffff"></path>
  </g>
  <g id="axes_1">
   <g id="patch_2">
    <path d="M 60.619984 258.225354 
L 429.165354 258.225354 
L 429.165354 19.634646 
L 60.619984 19.634646 
z
" style="fill: #ffffff"></path>
   </g>
   <g id="matplotlib.axis_1">
    <g id="xtick_1">
     <g id="line2d_1">
      <path d="M 71.050514 258.225354 
L 71.050514 19.634646 
" clip-path="url(#pecee224202)" style="fill: none; stroke: #000000; stroke-opacity: 0.1; stroke-width: 0.5; stroke-linecap: square"></path>
     </g>
     <g id="line2d_2">
      <defs>
       <path id="me6f3a443db" d="M 0 0 
L 0 -2.5 
" style="stroke: #000000; stroke-width: 0.5"></path>
      </defs>
      <g>
       <use xlink:href="#me6f3a443db" x="71.050514" y="258.225354" style="stroke: #000000; stroke-width: 0.5"></use>
      </g>
     </g>
     <g id="text_1">
      <!-- $0.00$ -->
      <g transform="translate(62.130514 267.804104) scale(0.08 -0.08)">
       <defs>
        <path id="DejaVuSans-30" d="M 2034 4250 
Q 1547 4250 1301 3770 
Q 1056 3291 1056 2328 
Q 1056 1369 1301 889 
Q 1547 409 2034 409 
Q 2525 409 2770 889 
Q 3016 1369 3016 2328 
Q 3016 3291 2770 3770 
Q 2525 4250 2034 4250 
z
M 2034 4750 
Q 2819 4750 3233 4129 
Q 3647 3509 3647 2328 
Q 3647 1150 3233 529 
Q 2819 -91 2034 -91 
Q 1250 -91 836 529 
Q 422 1150 422 2328 
Q 422 3509 836 4129 
Q 1250 4750 2034 4750 
z
" transform="scale(0.015625)"></path>
        <path id="DejaVuSans-2e" d="M 684 794 
L 1344 794 
L 1344 0 
L 684 0 
L 684 794 
z
" transform="scale(0.015625)"></path>
       </defs>
       <use xlink:href="#DejaVuSans-30" transform="translate(0 0.78125)"></use>
       <use xlink:href="#DejaVuSans-2e" transform="translate(63.623047 0.78125)"></use>
       <use xlink:href="#DejaVuSans-30" transform="translate(95.410156 0.78125)"></use>
       <use xlink:href="#DejaVuSans-30" transform="translate(159.033203 0.78125)"></use>
      </g>
     </g>
    </g>
    <g id="xtick_2">
     <g id="line2d_3">
      <path d="M 157.971592 258.225354 
L 157.971592 19.634646 
" clip-path="url(#pecee224202)" style="fill: none; stroke: #000000; stroke-opacity: 0.1; stroke-width: 0.5; stroke-linecap: square"></path>
     </g>
     <g id="line2d_4">
      <g>
       <use xlink:href="#me6f3a443db" x="157.971592" y="258.225354" style="stroke: #000000; stroke-width: 0.5"></use>
      </g>
     </g>
     <g id="text_2">
      <!-- $0.25$ -->
      <g transform="translate(149.251592 267.804104) scale(0.08 -0.08)">
       <defs>
        <path id="DejaVuSans-32" d="M 1228 531 
L 3431 531 
L 3431 0 
L 469 0 
L 469 531 
Q 828 903 1448 1529 
Q 2069 2156 2228 2338 
Q 2531 2678 2651 2914 
Q 2772 3150 2772 3378 
Q 2772 3750 2511 3984 
Q 2250 4219 1831 4219 
Q 1534 4219 1204 4116 
Q 875 4013 500 3803 
L 500 4441 
Q 881 4594 1212 4672 
Q 1544 4750 1819 4750 
Q 2544 4750 2975 4387 
Q 3406 4025 3406 3419 
Q 3406 3131 3298 2873 
Q 3191 2616 2906 2266 
Q 2828 2175 2409 1742 
Q 1991 1309 1228 531 
z
" transform="scale(0.015625)"></path>
        <path id="DejaVuSans-35" d="M 691 4666 
L 3169 4666 
L 3169 4134 
L 1269 4134 
L 1269 2991 
Q 1406 3038 1543 3061 
Q 1681 3084 1819 3084 
Q 2600 3084 3056 2656 
Q 3513 2228 3513 1497 
Q 3513 744 3044 326 
Q 2575 -91 1722 -91 
Q 1428 -91 1123 -41 
Q 819 9 494 109 
L 494 744 
Q 775 591 1075 516 
Q 1375 441 1709 441 
Q 2250 441 2565 725 
Q 2881 1009 2881 1497 
Q 2881 1984 2565 2268 
Q 2250 2553 1709 2553 
Q 1456 2553 1204 2497 
Q 953 2441 691 2322 
L 691 4666 
z
" transform="scale(0.015625)"></path>
       </defs>
       <use xlink:href="#DejaVuSans-30" transform="translate(0 0.78125)"></use>
       <use xlink:href="#DejaVuSans-2e" transform="translate(63.623047 0.78125)"></use>
       <use xlink:href="#DejaVuSans-32" transform="translate(89.910156 0.78125)"></use>
       <use xlink:href="#DejaVuSans-35" transform="translate(153.533203 0.78125)"></use>
      </g>
     </g>
    </g>
    <g id="xtick_3">
     <g id="line2d_5">
      <path d="M 244.892669 258.225354 
L 244.892669 19.634646 
" clip-path="url(#pecee224202)" style="fill: none; stroke: #000000; stroke-opacity: 0.1; stroke-width: 0.5; stroke-linecap: square"></path>
     </g>
     <g id="line2d_6">
      <g>
       <use xlink:href="#me6f3a443db" x="244.892669" y="258.225354" style="stroke: #000000; stroke-width: 0.5"></use>
      </g>
     </g>
     <g id="text_3">
      <!-- $0.50$ -->
      <g transform="translate(235.972669 267.804104) scale(0.08 -0.08)">
       <use xlink:href="#DejaVuSans-30" transform="translate(0 0.78125)"></use>
       <use xlink:href="#DejaVuSans-2e" transform="translate(63.623047 0.78125)"></use>
       <use xlink:href="#DejaVuSans-35" transform="translate(95.410156 0.78125)"></use>
       <use xlink:href="#DejaVuSans-30" transform="translate(159.033203 0.78125)"></use>
      </g>
     </g>
    </g>
    <g id="xtick_4">
     <g id="line2d_7">
      <path d="M 331.813747 258.225354 
L 331.813747 19.634646 
" clip-path="url(#pecee224202)" style="fill: none; stroke: #000000; stroke-opacity: 0.1; stroke-width: 0.5; stroke-linecap: square"></path>
     </g>
     <g id="line2d_8">
      <g>
       <use xlink:href="#me6f3a443db" x="331.813747" y="258.225354" style="stroke: #000000; stroke-width: 0.5"></use>
      </g>
     </g>
     <g id="text_4">
      <!-- $0.75$ -->
      <g transform="translate(323.213747 267.804104) scale(0.08 -0.08)">
       <defs>
        <path id="DejaVuSans-37" d="M 525 4666 
L 3525 4666 
L 3525 4397 
L 1831 0 
L 1172 0 
L 2766 4134 
L 525 4134 
L 525 4666 
z
" transform="scale(0.015625)"></path>
       </defs>
       <use xlink:href="#DejaVuSans-30" transform="translate(0 0.78125)"></use>
       <use xlink:href="#DejaVuSans-2e" transform="translate(63.623047 0.78125)"></use>
       <use xlink:href="#DejaVuSans-37" transform="translate(87.660156 0.78125)"></use>
       <use xlink:href="#DejaVuSans-35" transform="translate(151.283203 0.78125)"></use>
      </g>
     </g>
    </g>
    <g id="xtick_5">
     <g id="line2d_9">
      <path d="M 418.734825 258.225354 
L 418.734825 19.634646 
" clip-path="url(#pecee224202)" style="fill: none; stroke: #000000; stroke-opacity: 0.1; stroke-width: 0.5; stroke-linecap: square"></path>
     </g>
     <g id="line2d_10">
      <g>
       <use xlink:href="#me6f3a443db" x="418.734825" y="258.225354" style="stroke: #000000; stroke-width: 0.5"></use>
      </g>
     </g>
     <g id="text_5">
      <!-- $1.00$ -->
      <g transform="translate(409.814825 267.804104) scale(0.08 -0.08)">
       <defs>
        <path id="DejaVuSans-31" d="M 794 531 
L 1825 531 
L 1825 4091 
L 703 3866 
L 703 4441 
L 1819 4666 
L 2450 4666 
L 2450 531 
L 3481 531 
L 3481 0 
L 794 0 
L 794 531 
z
" transform="scale(0.015625)"></path>
       </defs>
       <use xlink:href="#DejaVuSans-31" transform="translate(0 0.78125)"></use>
       <use xlink:href="#DejaVuSans-2e" transform="translate(63.623047 0.78125)"></use>
       <use xlink:href="#DejaVuSans-30" transform="translate(95.410156 0.78125)"></use>
       <use xlink:href="#DejaVuSans-30" transform="translate(159.033203 0.78125)"></use>
      </g>
     </g>
    </g>
    <g id="text_6">
     <!-- score: overlap between predicition and ground truth -->
     <g transform="translate(100.866576 281.826136) scale(0.11 -0.11)">
      <defs>
       <path id="DejaVuSans-73" d="M 2834 3397 
L 2834 2853 
Q 2591 2978 2328 3040 
Q 2066 3103 1784 3103 
Q 1356 3103 1142 2972 
Q 928 2841 928 2578 
Q 928 2378 1081 2264 
Q 1234 2150 1697 2047 
L 1894 2003 
Q 2506 1872 2764 1633 
Q 3022 1394 3022 966 
Q 3022 478 2636 193 
Q 2250 -91 1575 -91 
Q 1294 -91 989 -36 
Q 684 19 347 128 
L 347 722 
Q 666 556 975 473 
Q 1284 391 1588 391 
Q 1994 391 2212 530 
Q 2431 669 2431 922 
Q 2431 1156 2273 1281 
Q 2116 1406 1581 1522 
L 1381 1569 
Q 847 1681 609 1914 
Q 372 2147 372 2553 
Q 372 3047 722 3315 
Q 1072 3584 1716 3584 
Q 2034 3584 2315 3537 
Q 2597 3491 2834 3397 
z
" transform="scale(0.015625)"></path>
       <path id="DejaVuSans-63" d="M 3122 3366 
L 3122 2828 
Q 2878 2963 2633 3030 
Q 2388 3097 2138 3097 
Q 1578 3097 1268 2742 
Q 959 2388 959 1747 
Q 959 1106 1268 751 
Q 1578 397 2138 397 
Q 2388 397 2633 464 
Q 2878 531 3122 666 
L 3122 134 
Q 2881 22 2623 -34 
Q 2366 -91 2075 -91 
Q 1284 -91 818 406 
Q 353 903 353 1747 
Q 353 2603 823 3093 
Q 1294 3584 2113 3584 
Q 2378 3584 2631 3529 
Q 2884 3475 3122 3366 
z
" transform="scale(0.015625)"></path>
       <path id="DejaVuSans-6f" d="M 1959 3097 
Q 1497 3097 1228 2736 
Q 959 2375 959 1747 
Q 959 1119 1226 758 
Q 1494 397 1959 397 
Q 2419 397 2687 759 
Q 2956 1122 2956 1747 
Q 2956 2369 2687 2733 
Q 2419 3097 1959 3097 
z
M 1959 3584 
Q 2709 3584 3137 3096 
Q 3566 2609 3566 1747 
Q 3566 888 3137 398 
Q 2709 -91 1959 -91 
Q 1206 -91 779 398 
Q 353 888 353 1747 
Q 353 2609 779 3096 
Q 1206 3584 1959 3584 
z
" transform="scale(0.015625)"></path>
       <path id="DejaVuSans-72" d="M 2631 2963 
Q 2534 3019 2420 3045 
Q 2306 3072 2169 3072 
Q 1681 3072 1420 2755 
Q 1159 2438 1159 1844 
L 1159 0 
L 581 0 
L 581 3500 
L 1159 3500 
L 1159 2956 
Q 1341 3275 1631 3429 
Q 1922 3584 2338 3584 
Q 2397 3584 2469 3576 
Q 2541 3569 2628 3553 
L 2631 2963 
z
" transform="scale(0.015625)"></path>
       <path id="DejaVuSans-65" d="M 3597 1894 
L 3597 1613 
L 953 1613 
Q 991 1019 1311 708 
Q 1631 397 2203 397 
Q 2534 397 2845 478 
Q 3156 559 3463 722 
L 3463 178 
Q 3153 47 2828 -22 
Q 2503 -91 2169 -91 
Q 1331 -91 842 396 
Q 353 884 353 1716 
Q 353 2575 817 3079 
Q 1281 3584 2069 3584 
Q 2775 3584 3186 3129 
Q 3597 2675 3597 1894 
z
M 3022 2063 
Q 3016 2534 2758 2815 
Q 2500 3097 2075 3097 
Q 1594 3097 1305 2825 
Q 1016 2553 972 2059 
L 3022 2063 
z
" transform="scale(0.015625)"></path>
       <path id="DejaVuSans-3a" d="M 750 794 
L 1409 794 
L 1409 0 
L 750 0 
L 750 794 
z
M 750 3309 
L 1409 3309 
L 1409 2516 
L 750 2516 
L 750 3309 
z
" transform="scale(0.015625)"></path>
       <path id="DejaVuSans-20" transform="scale(0.015625)"></path>
       <path id="DejaVuSans-76" d="M 191 3500 
L 800 3500 
L 1894 563 
L 2988 3500 
L 3597 3500 
L 2284 0 
L 1503 0 
L 191 3500 
z
" transform="scale(0.015625)"></path>
       <path id="DejaVuSans-6c" d="M 603 4863 
L 1178 4863 
L 1178 0 
L 603 0 
L 603 4863 
z
" transform="scale(0.015625)"></path>
       <path id="DejaVuSans-61" d="M 2194 1759 
Q 1497 1759 1228 1600 
Q 959 1441 959 1056 
Q 959 750 1161 570 
Q 1363 391 1709 391 
Q 2188 391 2477 730 
Q 2766 1069 2766 1631 
L 2766 1759 
L 2194 1759 
z
M 3341 1997 
L 3341 0 
L 2766 0 
L 2766 531 
Q 2569 213 2275 61 
Q 1981 -91 1556 -91 
Q 1019 -91 701 211 
Q 384 513 384 1019 
Q 384 1609 779 1909 
Q 1175 2209 1959 2209 
L 2766 2209 
L 2766 2266 
Q 2766 2663 2505 2880 
Q 2244 3097 1772 3097 
Q 1472 3097 1187 3025 
Q 903 2953 641 2809 
L 641 3341 
Q 956 3463 1253 3523 
Q 1550 3584 1831 3584 
Q 2591 3584 2966 3190 
Q 3341 2797 3341 1997 
z
" transform="scale(0.015625)"></path>
       <path id="DejaVuSans-70" d="M 1159 525 
L 1159 -1331 
L 581 -1331 
L 581 3500 
L 1159 3500 
L 1159 2969 
Q 1341 3281 1617 3432 
Q 1894 3584 2278 3584 
Q 2916 3584 3314 3078 
Q 3713 2572 3713 1747 
Q 3713 922 3314 415 
Q 2916 -91 2278 -91 
Q 1894 -91 1617 61 
Q 1341 213 1159 525 
z
M 3116 1747 
Q 3116 2381 2855 2742 
Q 2594 3103 2138 3103 
Q 1681 3103 1420 2742 
Q 1159 2381 1159 1747 
Q 1159 1113 1420 752 
Q 1681 391 2138 391 
Q 2594 391 2855 752 
Q 3116 1113 3116 1747 
z
" transform="scale(0.015625)"></path>
       <path id="DejaVuSans-62" d="M 3116 1747 
Q 3116 2381 2855 2742 
Q 2594 3103 2138 3103 
Q 1681 3103 1420 2742 
Q 1159 2381 1159 1747 
Q 1159 1113 1420 752 
Q 1681 391 2138 391 
Q 2594 391 2855 752 
Q 3116 1113 3116 1747 
z
M 1159 2969 
Q 1341 3281 1617 3432 
Q 1894 3584 2278 3584 
Q 2916 3584 3314 3078 
Q 3713 2572 3713 1747 
Q 3713 922 3314 415 
Q 2916 -91 2278 -91 
Q 1894 -91 1617 61 
Q 1341 213 1159 525 
L 1159 0 
L 581 0 
L 581 4863 
L 1159 4863 
L 1159 2969 
z
" transform="scale(0.015625)"></path>
       <path id="DejaVuSans-74" d="M 1172 4494 
L 1172 3500 
L 2356 3500 
L 2356 3053 
L 1172 3053 
L 1172 1153 
Q 1172 725 1289 603 
Q 1406 481 1766 481 
L 2356 481 
L 2356 0 
L 1766 0 
Q 1100 0 847 248 
Q 594 497 594 1153 
L 594 3053 
L 172 3053 
L 172 3500 
L 594 3500 
L 594 4494 
L 1172 4494 
z
" transform="scale(0.015625)"></path>
       <path id="DejaVuSans-77" d="M 269 3500 
L 844 3500 
L 1563 769 
L 2278 3500 
L 2956 3500 
L 3675 769 
L 4391 3500 
L 4966 3500 
L 4050 0 
L 3372 0 
L 2619 2869 
L 1863 0 
L 1184 0 
L 269 3500 
z
" transform="scale(0.015625)"></path>
       <path id="DejaVuSans-6e" d="M 3513 2113 
L 3513 0 
L 2938 0 
L 2938 2094 
Q 2938 2591 2744 2837 
Q 2550 3084 2163 3084 
Q 1697 3084 1428 2787 
Q 1159 2491 1159 1978 
L 1159 0 
L 581 0 
L 581 3500 
L 1159 3500 
L 1159 2956 
Q 1366 3272 1645 3428 
Q 1925 3584 2291 3584 
Q 2894 3584 3203 3211 
Q 3513 2838 3513 2113 
z
" transform="scale(0.015625)"></path>
       <path id="DejaVuSans-64" d="M 2906 2969 
L 2906 4863 
L 3481 4863 
L 3481 0 
L 2906 0 
L 2906 525 
Q 2725 213 2448 61 
Q 2172 -91 1784 -91 
Q 1150 -91 751 415 
Q 353 922 353 1747 
Q 353 2572 751 3078 
Q 1150 3584 1784 3584 
Q 2172 3584 2448 3432 
Q 2725 3281 2906 2969 
z
M 947 1747 
Q 947 1113 1208 752 
Q 1469 391 1925 391 
Q 2381 391 2643 752 
Q 2906 1113 2906 1747 
Q 2906 2381 2643 2742 
Q 2381 3103 1925 3103 
Q 1469 3103 1208 2742 
Q 947 2381 947 1747 
z
" transform="scale(0.015625)"></path>
       <path id="DejaVuSans-69" d="M 603 3500 
L 1178 3500 
L 1178 0 
L 603 0 
L 603 3500 
z
M 603 4863 
L 1178 4863 
L 1178 4134 
L 603 4134 
L 603 4863 
z
" transform="scale(0.015625)"></path>
       <path id="DejaVuSans-67" d="M 2906 1791 
Q 2906 2416 2648 2759 
Q 2391 3103 1925 3103 
Q 1463 3103 1205 2759 
Q 947 2416 947 1791 
Q 947 1169 1205 825 
Q 1463 481 1925 481 
Q 2391 481 2648 825 
Q 2906 1169 2906 1791 
z
M 3481 434 
Q 3481 -459 3084 -895 
Q 2688 -1331 1869 -1331 
Q 1566 -1331 1297 -1286 
Q 1028 -1241 775 -1147 
L 775 -588 
Q 1028 -725 1275 -790 
Q 1522 -856 1778 -856 
Q 2344 -856 2625 -561 
Q 2906 -266 2906 331 
L 2906 616 
Q 2728 306 2450 153 
Q 2172 0 1784 0 
Q 1141 0 747 490 
Q 353 981 353 1791 
Q 353 2603 747 3093 
Q 1141 3584 1784 3584 
Q 2172 3584 2450 3431 
Q 2728 3278 2906 2969 
L 2906 3500 
L 3481 3500 
L 3481 434 
z
" transform="scale(0.015625)"></path>
       <path id="DejaVuSans-75" d="M 544 1381 
L 544 3500 
L 1119 3500 
L 1119 1403 
Q 1119 906 1312 657 
Q 1506 409 1894 409 
Q 2359 409 2629 706 
Q 2900 1003 2900 1516 
L 2900 3500 
L 3475 3500 
L 3475 0 
L 2900 0 
L 2900 538 
Q 2691 219 2414 64 
Q 2138 -91 1772 -91 
Q 1169 -91 856 284 
Q 544 659 544 1381 
z
M 1991 3584 
L 1991 3584 
z
" transform="scale(0.015625)"></path>
       <path id="DejaVuSans-68" d="M 3513 2113 
L 3513 0 
L 2938 0 
L 2938 2094 
Q 2938 2591 2744 2837 
Q 2550 3084 2163 3084 
Q 1697 3084 1428 2787 
Q 1159 2491 1159 1978 
L 1159 0 
L 581 0 
L 581 4863 
L 1159 4863 
L 1159 2956 
Q 1366 3272 1645 3428 
Q 1925 3584 2291 3584 
Q 2894 3584 3203 3211 
Q 3513 2838 3513 2113 
z
" transform="scale(0.015625)"></path>
      </defs>
      <use xlink:href="#DejaVuSans-73"></use>
      <use xlink:href="#DejaVuSans-63" x="52.099609"></use>
      <use xlink:href="#DejaVuSans-6f" x="107.080078"></use>
      <use xlink:href="#DejaVuSans-72" x="168.261719"></use>
      <use xlink:href="#DejaVuSans-65" x="207.125"></use>
      <use xlink:href="#DejaVuSans-3a" x="268.648438"></use>
      <use xlink:href="#DejaVuSans-20" x="302.339844"></use>
      <use xlink:href="#DejaVuSans-6f" x="334.126953"></use>
      <use xlink:href="#DejaVuSans-76" x="395.308594"></use>
      <use xlink:href="#DejaVuSans-65" x="454.488281"></use>
      <use xlink:href="#DejaVuSans-72" x="516.011719"></use>
      <use xlink:href="#DejaVuSans-6c" x="557.125"></use>
      <use xlink:href="#DejaVuSans-61" x="584.908203"></use>
      <use xlink:href="#DejaVuSans-70" x="646.1875"></use>
      <use xlink:href="#DejaVuSans-20" x="709.664062"></use>
      <use xlink:href="#DejaVuSans-62" x="741.451172"></use>
      <use xlink:href="#DejaVuSans-65" x="804.927734"></use>
      <use xlink:href="#DejaVuSans-74" x="866.451172"></use>
      <use xlink:href="#DejaVuSans-77" x="905.660156"></use>
      <use xlink:href="#DejaVuSans-65" x="987.447266"></use>
      <use xlink:href="#DejaVuSans-65" x="1048.970703"></use>
      <use xlink:href="#DejaVuSans-6e" x="1110.494141"></use>
      <use xlink:href="#DejaVuSans-20" x="1173.873047"></use>
      <use xlink:href="#DejaVuSans-70" x="1205.660156"></use>
      <use xlink:href="#DejaVuSans-72" x="1269.136719"></use>
      <use xlink:href="#DejaVuSans-65" x="1308"></use>
      <use xlink:href="#DejaVuSans-64" x="1369.523438"></use>
      <use xlink:href="#DejaVuSans-69" x="1433"></use>
      <use xlink:href="#DejaVuSans-63" x="1460.783203"></use>
      <use xlink:href="#DejaVuSans-69" x="1515.763672"></use>
      <use xlink:href="#DejaVuSans-74" x="1543.546875"></use>
      <use xlink:href="#DejaVuSans-69" x="1582.755859"></use>
      <use xlink:href="#DejaVuSans-6f" x="1610.539062"></use>
      <use xlink:href="#DejaVuSans-6e" x="1671.720703"></use>
      <use xlink:href="#DejaVuSans-20" x="1735.099609"></use>
      <use xlink:href="#DejaVuSans-61" x="1766.886719"></use>
      <use xlink:href="#DejaVuSans-6e" x="1828.166016"></use>
      <use xlink:href="#DejaVuSans-64" x="1891.544922"></use>
      <use xlink:href="#DejaVuSans-20" x="1955.021484"></use>
      <use xlink:href="#DejaVuSans-67" x="1986.808594"></use>
      <use xlink:href="#DejaVuSans-72" x="2050.285156"></use>
      <use xlink:href="#DejaVuSans-6f" x="2089.148438"></use>
      <use xlink:href="#DejaVuSans-75" x="2150.330078"></use>
      <use xlink:href="#DejaVuSans-6e" x="2213.708984"></use>
      <use xlink:href="#DejaVuSans-64" x="2277.087891"></use>
      <use xlink:href="#DejaVuSans-20" x="2340.564453"></use>
      <use xlink:href="#DejaVuSans-74" x="2372.351562"></use>
      <use xlink:href="#DejaVuSans-72" x="2411.560547"></use>
      <use xlink:href="#DejaVuSans-75" x="2452.673828"></use>
      <use xlink:href="#DejaVuSans-74" x="2516.052734"></use>
      <use xlink:href="#DejaVuSans-68" x="2555.261719"></use>
     </g>
    </g>
   </g>
   <g id="matplotlib.axis_2">
    <g id="ytick_1">
     <g id="line2d_11">
      <path d="M 60.619984 217.370949 
L 429.165354 217.370949 
" clip-path="url(#pecee224202)" style="fill: none; stroke: #000000; stroke-opacity: 0.1; stroke-width: 0.5; stroke-linecap: square"></path>
     </g>
     <g id="line2d_12">
      <defs>
       <path id="mda70d0f1df" d="M 0 0 
L 2.5 0 
" style="stroke: #000000; stroke-width: 0.5"></path>
      </defs>
      <g>
       <use xlink:href="#mda70d0f1df" x="60.619984" y="217.370949" style="stroke: #000000; stroke-width: 0.5"></use>
      </g>
     </g>
     <g id="text_7">
      <!-- $4.50×10^{4}$ -->
      <g transform="translate(18.559984 220.410324) scale(0.08 -0.08)">
       <defs>
        <path id="DejaVuSans-34" d="M 2419 4116 
L 825 1625 
L 2419 1625 
L 2419 4116 
z
M 2253 4666 
L 3047 4666 
L 3047 1625 
L 3713 1625 
L 3713 1100 
L 3047 1100 
L 3047 0 
L 2419 0 
L 2419 1100 
L 313 1100 
L 313 1709 
L 2253 4666 
z
" transform="scale(0.015625)"></path>
        <path id="DejaVuSans-d7" d="M 4488 3438 
L 3059 2003 
L 4488 575 
L 4116 197 
L 2681 1631 
L 1247 197 
L 878 575 
L 2303 2003 
L 878 3438 
L 1247 3816 
L 2681 2381 
L 4116 3816 
L 4488 3438 
z
" transform="scale(0.015625)"></path>
       </defs>
       <use xlink:href="#DejaVuSans-34" transform="translate(0 0.684375)"></use>
       <use xlink:href="#DejaVuSans-2e" transform="translate(63.623047 0.684375)"></use>
       <use xlink:href="#DejaVuSans-35" transform="translate(95.410156 0.684375)"></use>
       <use xlink:href="#DejaVuSans-30" transform="translate(159.033203 0.684375)"></use>
       <use xlink:href="#DejaVuSans-d7" transform="translate(222.65625 0.684375)"></use>
       <use xlink:href="#DejaVuSans-31" transform="translate(306.445312 0.684375)"></use>
       <use xlink:href="#DejaVuSans-30" transform="translate(370.068359 0.684375)"></use>
       <use xlink:href="#DejaVuSans-34" transform="translate(434.648438 38.965625) scale(0.7)"></use>
      </g>
     </g>
    </g>
    <g id="ytick_2">
     <g id="line2d_13">
      <path d="M 60.619984 175.363265 
L 429.165354 175.363265 
" clip-path="url(#pecee224202)" style="fill: none; stroke: #000000; stroke-opacity: 0.1; stroke-width: 0.5; stroke-linecap: square"></path>
     </g>
     <g id="line2d_14">
      <g>
       <use xlink:href="#mda70d0f1df" x="60.619984" y="175.363265" style="stroke: #000000; stroke-width: 0.5"></use>
      </g>
     </g>
     <g id="text_8">
      <!-- $5.00×10^{4}$ -->
      <g transform="translate(18.559984 178.40264) scale(0.08 -0.08)">
       <use xlink:href="#DejaVuSans-35" transform="translate(0 0.684375)"></use>
       <use xlink:href="#DejaVuSans-2e" transform="translate(63.623047 0.684375)"></use>
       <use xlink:href="#DejaVuSans-30" transform="translate(95.410156 0.684375)"></use>
       <use xlink:href="#DejaVuSans-30" transform="translate(159.033203 0.684375)"></use>
       <use xlink:href="#DejaVuSans-d7" transform="translate(222.65625 0.684375)"></use>
       <use xlink:href="#DejaVuSans-31" transform="translate(306.445312 0.684375)"></use>
       <use xlink:href="#DejaVuSans-30" transform="translate(370.068359 0.684375)"></use>
       <use xlink:href="#DejaVuSans-34" transform="translate(434.648438 38.965625) scale(0.7)"></use>
      </g>
     </g>
    </g>
    <g id="ytick_3">
     <g id="line2d_15">
      <path d="M 60.619984 133.35558 
L 429.165354 133.35558 
" clip-path="url(#pecee224202)" style="fill: none; stroke: #000000; stroke-opacity: 0.1; stroke-width: 0.5; stroke-linecap: square"></path>
     </g>
     <g id="line2d_16">
      <g>
       <use xlink:href="#mda70d0f1df" x="60.619984" y="133.35558" style="stroke: #000000; stroke-width: 0.5"></use>
      </g>
     </g>
     <g id="text_9">
      <!-- $5.50×10^{4}$ -->
      <g transform="translate(18.559984 136.394955) scale(0.08 -0.08)">
       <use xlink:href="#DejaVuSans-35" transform="translate(0 0.684375)"></use>
       <use xlink:href="#DejaVuSans-2e" transform="translate(63.623047 0.684375)"></use>
       <use xlink:href="#DejaVuSans-35" transform="translate(95.410156 0.684375)"></use>
       <use xlink:href="#DejaVuSans-30" transform="translate(159.033203 0.684375)"></use>
       <use xlink:href="#DejaVuSans-d7" transform="translate(222.65625 0.684375)"></use>
       <use xlink:href="#DejaVuSans-31" transform="translate(306.445312 0.684375)"></use>
       <use xlink:href="#DejaVuSans-30" transform="translate(370.068359 0.684375)"></use>
       <use xlink:href="#DejaVuSans-34" transform="translate(434.648438 38.965625) scale(0.7)"></use>
      </g>
     </g>
    </g>
    <g id="ytick_4">
     <g id="line2d_17">
      <path d="M 60.619984 91.347896 
L 429.165354 91.347896 
" clip-path="url(#pecee224202)" style="fill: none; stroke: #000000; stroke-opacity: 0.1; stroke-width: 0.5; stroke-linecap: square"></path>
     </g>
     <g id="line2d_18">
      <g>
       <use xlink:href="#mda70d0f1df" x="60.619984" y="91.347896" style="stroke: #000000; stroke-width: 0.5"></use>
      </g>
     </g>
     <g id="text_10">
      <!-- $6.00×10^{4}$ -->
      <g transform="translate(18.559984 94.387271) scale(0.08 -0.08)">
       <defs>
        <path id="DejaVuSans-36" d="M 2113 2584 
Q 1688 2584 1439 2293 
Q 1191 2003 1191 1497 
Q 1191 994 1439 701 
Q 1688 409 2113 409 
Q 2538 409 2786 701 
Q 3034 994 3034 1497 
Q 3034 2003 2786 2293 
Q 2538 2584 2113 2584 
z
M 3366 4563 
L 3366 3988 
Q 3128 4100 2886 4159 
Q 2644 4219 2406 4219 
Q 1781 4219 1451 3797 
Q 1122 3375 1075 2522 
Q 1259 2794 1537 2939 
Q 1816 3084 2150 3084 
Q 2853 3084 3261 2657 
Q 3669 2231 3669 1497 
Q 3669 778 3244 343 
Q 2819 -91 2113 -91 
Q 1303 -91 875 529 
Q 447 1150 447 2328 
Q 447 3434 972 4092 
Q 1497 4750 2381 4750 
Q 2619 4750 2861 4703 
Q 3103 4656 3366 4563 
z
" transform="scale(0.015625)"></path>
       </defs>
       <use xlink:href="#DejaVuSans-36" transform="translate(0 0.684375)"></use>
       <use xlink:href="#DejaVuSans-2e" transform="translate(63.623047 0.684375)"></use>
       <use xlink:href="#DejaVuSans-30" transform="translate(95.410156 0.684375)"></use>
       <use xlink:href="#DejaVuSans-30" transform="translate(159.033203 0.684375)"></use>
       <use xlink:href="#DejaVuSans-d7" transform="translate(222.65625 0.684375)"></use>
       <use xlink:href="#DejaVuSans-31" transform="translate(306.445312 0.684375)"></use>
       <use xlink:href="#DejaVuSans-30" transform="translate(370.068359 0.684375)"></use>
       <use xlink:href="#DejaVuSans-34" transform="translate(434.648438 38.965625) scale(0.7)"></use>
      </g>
     </g>
    </g>
    <g id="ytick_5">
     <g id="line2d_19">
      <path d="M 60.619984 49.340212 
L 429.165354 49.340212 
" clip-path="url(#pecee224202)" style="fill: none; stroke: #000000; stroke-opacity: 0.1; stroke-width: 0.5; stroke-linecap: square"></path>
     </g>
     <g id="line2d_20">
      <g>
       <use xlink:href="#mda70d0f1df" x="60.619984" y="49.340212" style="stroke: #000000; stroke-width: 0.5"></use>
      </g>
     </g>
     <g id="text_11">
      <!-- $6.50×10^{4}$ -->
      <g transform="translate(18.559984 52.379587) scale(0.08 -0.08)">
       <use xlink:href="#DejaVuSans-36" transform="translate(0 0.684375)"></use>
       <use xlink:href="#DejaVuSans-2e" transform="translate(63.623047 0.684375)"></use>
       <use xlink:href="#DejaVuSans-35" transform="translate(95.410156 0.684375)"></use>
       <use xlink:href="#DejaVuSans-30" transform="translate(159.033203 0.684375)"></use>
       <use xlink:href="#DejaVuSans-d7" transform="translate(222.65625 0.684375)"></use>
       <use xlink:href="#DejaVuSans-31" transform="translate(306.445312 0.684375)"></use>
       <use xlink:href="#DejaVuSans-30" transform="translate(370.068359 0.684375)"></use>
       <use xlink:href="#DejaVuSans-34" transform="translate(434.648438 38.965625) scale(0.7)"></use>
      </g>
     </g>
    </g>
    <g id="text_12">
     <!-- # sequences with score &gt;= x -->
     <g transform="translate(12.272328 220.565469) rotate(-90) scale(0.11 -0.11)">
      <defs>
       <path id="DejaVuSans-23" d="M 3272 2816 
L 2363 2816 
L 2100 1772 
L 3016 1772 
L 3272 2816 
z
M 2803 4594 
L 2478 3297 
L 3391 3297 
L 3719 4594 
L 4219 4594 
L 3897 3297 
L 4872 3297 
L 4872 2816 
L 3775 2816 
L 3519 1772 
L 4513 1772 
L 4513 1294 
L 3397 1294 
L 3072 0 
L 2572 0 
L 2894 1294 
L 1978 1294 
L 1656 0 
L 1153 0 
L 1478 1294 
L 494 1294 
L 494 1772 
L 1594 1772 
L 1856 2816 
L 850 2816 
L 850 3297 
L 1978 3297 
L 2297 4594 
L 2803 4594 
z
" transform="scale(0.015625)"></path>
       <path id="DejaVuSans-71" d="M 947 1747 
Q 947 1113 1208 752 
Q 1469 391 1925 391 
Q 2381 391 2643 752 
Q 2906 1113 2906 1747 
Q 2906 2381 2643 2742 
Q 2381 3103 1925 3103 
Q 1469 3103 1208 2742 
Q 947 2381 947 1747 
z
M 2906 525 
Q 2725 213 2448 61 
Q 2172 -91 1784 -91 
Q 1150 -91 751 415 
Q 353 922 353 1747 
Q 353 2572 751 3078 
Q 1150 3584 1784 3584 
Q 2172 3584 2448 3432 
Q 2725 3281 2906 2969 
L 2906 3500 
L 3481 3500 
L 3481 -1331 
L 2906 -1331 
L 2906 525 
z
" transform="scale(0.015625)"></path>
       <path id="DejaVuSans-3e" d="M 678 3150 
L 678 3719 
L 4684 2266 
L 4684 1747 
L 678 294 
L 678 863 
L 3897 2003 
L 678 3150 
z
" transform="scale(0.015625)"></path>
       <path id="DejaVuSans-3d" d="M 678 2906 
L 4684 2906 
L 4684 2381 
L 678 2381 
L 678 2906 
z
M 678 1631 
L 4684 1631 
L 4684 1100 
L 678 1100 
L 678 1631 
z
" transform="scale(0.015625)"></path>
       <path id="DejaVuSans-78" d="M 3513 3500 
L 2247 1797 
L 3578 0 
L 2900 0 
L 1881 1375 
L 863 0 
L 184 0 
L 1544 1831 
L 300 3500 
L 978 3500 
L 1906 2253 
L 2834 3500 
L 3513 3500 
z
" transform="scale(0.015625)"></path>
      </defs>
      <use xlink:href="#DejaVuSans-23"></use>
      <use xlink:href="#DejaVuSans-20" x="83.789062"></use>
      <use xlink:href="#DejaVuSans-73" x="115.576172"></use>
      <use xlink:href="#DejaVuSans-65" x="167.675781"></use>
      <use xlink:href="#DejaVuSans-71" x="229.199219"></use>
      <use xlink:href="#DejaVuSans-75" x="292.675781"></use>
      <use xlink:href="#DejaVuSans-65" x="356.054688"></use>
      <use xlink:href="#DejaVuSans-6e" x="417.578125"></use>
      <use xlink:href="#DejaVuSans-63" x="480.957031"></use>
      <use xlink:href="#DejaVuSans-65" x="535.9375"></use>
      <use xlink:href="#DejaVuSans-73" x="597.460938"></use>
      <use xlink:href="#DejaVuSans-20" x="649.560547"></use>
      <use xlink:href="#DejaVuSans-77" x="681.347656"></use>
      <use xlink:href="#DejaVuSans-69" x="763.134766"></use>
      <use xlink:href="#DejaVuSans-74" x="790.917969"></use>
      <use xlink:href="#DejaVuSans-68" x="830.126953"></use>
      <use xlink:href="#DejaVuSans-20" x="893.505859"></use>
      <use xlink:href="#DejaVuSans-73" x="925.292969"></use>
      <use xlink:href="#DejaVuSans-63" x="977.392578"></use>
      <use xlink:href="#DejaVuSans-6f" x="1032.373047"></use>
      <use xlink:href="#DejaVuSans-72" x="1093.554688"></use>
      <use xlink:href="#DejaVuSans-65" x="1132.417969"></use>
      <use xlink:href="#DejaVuSans-20" x="1193.941406"></use>
      <use xlink:href="#DejaVuSans-3e" x="1225.728516"></use>
      <use xlink:href="#DejaVuSans-3d" x="1309.517578"></use>
      <use xlink:href="#DejaVuSans-20" x="1393.306641"></use>
      <use xlink:href="#DejaVuSans-78" x="1425.09375"></use>
     </g>
    </g>
   </g>
   <g id="line2d_21">
    <path d="M 71.050514 30.806421 
L 78.146112 30.806421 
L 85.24171 30.806421 
L 92.337308 30.806421 
L 99.432907 30.806421 
L 106.528505 31.29371 
L 113.624103 35.780131 
L 120.719701 40.300158 
L 127.815299 44.517729 
L 134.910897 48.810915 
L 142.006496 52.902463 
L 149.102094 57.195649 
L 156.197692 61.472031 
L 163.29329 65.462761 
L 170.388888 69.638325 
L 177.484487 73.721472 
L 184.580085 77.678595 
L 191.675683 81.69453 
L 198.771281 85.945708 
L 205.866879 89.558369 
L 212.962478 94.456465 
L 220.058076 98.926082 
L 227.153674 103.160457 
L 234.249272 107.621673 
L 241.34487 111.948464 
L 248.440468 116.283657 
L 255.536067 120.484426 
L 262.631665 124.710399 
L 269.727263 129.457267 
L 276.822861 133.834468 
L 283.918459 138.396502 
L 291.014058 143.286197 
L 298.109656 148.394331 
L 305.205254 153.208412 
L 312.300852 158.106508 
L 319.39645 162.954195 
L 326.492049 167.79348 
L 333.587647 172.926819 
L 340.683245 178.572652 
L 347.778843 184.042052 
L 354.874441 189.889522 
L 361.970039 195.350521 
L 369.065638 201.391226 
L 376.161236 207.742788 
L 383.256834 213.640667 
L 390.352432 219.798993 
L 397.44803 225.285197 
L 404.543629 229.855633 
L 411.639227 234.21603 
L 418.734825 237.727873 
" clip-path="url(#pecee224202)" style="fill: none; stroke: #009afa"></path>
   </g>
   <g id="line2d_22">
    <path d="M 71.050514 31.696984 
L 78.146112 31.696984 
L 85.24171 31.696984 
L 92.337308 31.696984 
L 99.432907 31.696984 
L 106.528505 32.091856 
L 113.624103 35.696116 
L 120.719701 39.291974 
L 127.815299 42.862627 
L 134.910897 46.601311 
L 142.006496 50.079547 
L 149.102094 53.919049 
L 156.197692 57.430892 
L 163.29329 61.455228 
L 170.388888 65.160306 
L 177.484487 68.756163 
L 184.580085 72.536855 
L 191.675683 76.124311 
L 198.771281 79.980617 
L 205.866879 83.509262 
L 212.962478 87.247946 
L 220.058076 90.961425 
L 227.153674 94.968958 
L 234.249272 99.052105 
L 241.34487 103.261275 
L 248.440468 107.336021 
L 255.536067 111.494781 
L 262.631665 115.342685 
L 269.727263 119.669477 
L 276.822861 123.945859 
L 283.918459 128.642318 
L 291.014058 133.523611 
L 298.109656 138.388101 
L 305.205254 142.992143 
L 312.300852 147.890239 
L 319.39645 152.645509 
L 326.492049 158.207326 
L 333.587647 163.69353 
L 340.683245 168.952892 
L 347.778843 174.539914 
L 354.874441 180.496604 
L 361.970039 186.43649 
L 369.065638 192.435188 
L 376.161236 198.383476 
L 383.256834 204.827454 
L 390.352432 211.809132 
L 397.44803 218.597573 
L 404.543629 225.402818 
L 411.639227 231.057053 
L 418.734825 236.156785 
" clip-path="url(#pecee224202)" style="fill: none; stroke: #e36f47"></path>
   </g>
   <g id="patch_3">
    <path d="M 60.619984 258.225354 
L 60.619984 19.634646 
" style="fill: none; stroke: #000000; stroke-linejoin: miter; stroke-linecap: square"></path>
   </g>
   <g id="patch_4">
    <path d="M 60.619984 258.225354 
L 429.165354 258.225354 
" style="fill: none; stroke: #000000; stroke-linejoin: miter; stroke-linecap: square"></path>
   </g>
   <g id="line2d_23">
    <path d="M 71.050514 26.387213 
L 78.146112 26.387213 
L 85.24171 26.387213 
L 92.337308 26.387213 
L 99.432907 26.387213 
L 106.528505 26.748479 
L 113.624103 31.285309 
L 120.719701 35.39366 
L 127.815299 39.426398 
L 134.910897 43.383522 
L 142.006496 47.315441 
L 149.102094 51.180148 
L 156.197692 55.204484 
L 163.29329 59.296033 
L 170.388888 63.404384 
L 177.484487 67.168273 
L 184.580085 70.999374 
L 191.675683 74.939694 
L 198.771281 78.57756 
L 205.866879 82.257433 
L 212.962478 86.374186 
L 220.058076 90.650568 
L 227.153674 94.691708 
L 234.249272 98.96809 
L 241.34487 103.017631 
L 248.440468 107.260407 
L 255.536067 111.646009 
L 262.631665 116.048414 
L 269.727263 120.476024 
L 276.822861 125.080066 
L 283.918459 129.843738 
L 291.014058 134.296552 
L 298.109656 139.522308 
L 305.205254 144.874087 
L 312.300852 150.200662 
L 319.39645 154.939129 
L 326.492049 159.677595 
L 333.587647 164.432865 
L 340.683245 170.120706 
L 347.778843 175.707728 
L 354.874441 181.13512 
L 361.970039 186.680135 
L 369.065638 193.258538 
L 376.161236 199.677312 
L 383.256834 205.89445 
L 390.352432 212.296421 
L 397.44803 217.992663 
L 404.543629 223.386449 
L 411.639227 228.040901 
L 418.734825 231.703971 
" clip-path="url(#pecee224202)" style="fill: none; stroke: #3ea44e"></path>
   </g>
   <g id="text_13">
    <!-- Gene finding using augustus -->
    <g transform="translate(144.642826 13.634646) scale(0.14 -0.14)">
     <defs>
      <path id="DejaVuSans-47" d="M 3809 666 
L 3809 1919 
L 2778 1919 
L 2778 2438 
L 4434 2438 
L 4434 434 
Q 4069 175 3628 42 
Q 3188 -91 2688 -91 
Q 1594 -91 976 548 
Q 359 1188 359 2328 
Q 359 3472 976 4111 
Q 1594 4750 2688 4750 
Q 3144 4750 3555 4637 
Q 3966 4525 4313 4306 
L 4313 3634 
Q 3963 3931 3569 4081 
Q 3175 4231 2741 4231 
Q 1884 4231 1454 3753 
Q 1025 3275 1025 2328 
Q 1025 1384 1454 906 
Q 1884 428 2741 428 
Q 3075 428 3337 486 
Q 3600 544 3809 666 
z
" transform="scale(0.015625)"></path>
      <path id="DejaVuSans-66" d="M 2375 4863 
L 2375 4384 
L 1825 4384 
Q 1516 4384 1395 4259 
Q 1275 4134 1275 3809 
L 1275 3500 
L 2222 3500 
L 2222 3053 
L 1275 3053 
L 1275 0 
L 697 0 
L 697 3053 
L 147 3053 
L 147 3500 
L 697 3500 
L 697 3744 
Q 697 4328 969 4595 
Q 1241 4863 1831 4863 
L 2375 4863 
z
" transform="scale(0.015625)"></path>
     </defs>
     <use xlink:href="#DejaVuSans-47"></use>
     <use xlink:href="#DejaVuSans-65" x="77.490234"></use>
     <use xlink:href="#DejaVuSans-6e" x="139.013672"></use>
     <use xlink:href="#DejaVuSans-65" x="202.392578"></use>
     <use xlink:href="#DejaVuSans-20" x="263.916016"></use>
     <use xlink:href="#DejaVuSans-66" x="295.703125"></use>
     <use xlink:href="#DejaVuSans-69" x="330.908203"></use>
     <use xlink:href="#DejaVuSans-6e" x="358.691406"></use>
     <use xlink:href="#DejaVuSans-64" x="422.070312"></use>
     <use xlink:href="#DejaVuSans-69" x="485.546875"></use>
     <use xlink:href="#DejaVuSans-6e" x="513.330078"></use>
     <use xlink:href="#DejaVuSans-67" x="576.708984"></use>
     <use xlink:href="#DejaVuSans-20" x="640.185547"></use>
     <use xlink:href="#DejaVuSans-75" x="671.972656"></use>
     <use xlink:href="#DejaVuSans-73" x="735.351562"></use>
     <use xlink:href="#DejaVuSans-69" x="787.451172"></use>
     <use xlink:href="#DejaVuSans-6e" x="815.234375"></use>
     <use xlink:href="#DejaVuSans-67" x="878.613281"></use>
     <use xlink:href="#DejaVuSans-20" x="942.089844"></use>
     <use xlink:href="#DejaVuSans-61" x="973.876953"></use>
     <use xlink:href="#DejaVuSans-75" x="1035.15625"></use>
     <use xlink:href="#DejaVuSans-67" x="1098.535156"></use>
     <use xlink:href="#DejaVuSans-75" x="1162.011719"></use>
     <use xlink:href="#DejaVuSans-73" x="1225.390625"></use>
     <use xlink:href="#DejaVuSans-74" x="1277.490234"></use>
     <use xlink:href="#DejaVuSans-75" x="1316.699219"></use>
     <use xlink:href="#DejaVuSans-73" x="1380.078125"></use>
    </g>
   </g>
   <g id="line2d_24">
    <path d="M 71.050514 67.848797 
L 78.146112 67.848797 
L 85.24171 67.848797 
L 92.337308 67.848797 
L 99.432907 67.848797 
L 106.528505 68.109245 
L 113.624103 70.864949 
L 120.719701 73.519835 
L 127.815299 76.409963 
L 134.910897 79.484926 
L 142.006496 82.534684 
L 149.102094 85.920503 
L 156.197692 89.12989 
L 163.29329 92.120837 
L 170.388888 95.145391 
L 177.484487 98.220353 
L 184.580085 101.505354 
L 191.675683 104.479498 
L 198.771281 107.82331 
L 205.866879 111.452774 
L 212.962478 115.300678 
L 220.058076 118.342034 
L 227.153674 121.887482 
L 234.249272 125.710182 
L 241.34487 129.650503 
L 248.440468 133.095133 
L 255.536067 136.438944 
L 262.631665 140.051605 
L 269.727263 143.689471 
L 276.822861 147.722208 
L 283.918459 152.116212 
L 291.014058 156.115344 
L 298.109656 160.425332 
L 305.205254 165.020973 
L 312.300852 169.583007 
L 319.39645 174.187049 
L 326.492049 178.67347 
L 333.587647 183.798408 
L 340.683245 189.05777 
L 347.778843 194.165904 
L 354.874441 199.467274 
L 361.970039 205.02069 
L 369.065638 211.03619 
L 376.161236 216.808046 
L 383.256834 223.176411 
L 390.352432 229.29273 
L 397.44803 235.299829 
L 404.543629 240.945661 
L 411.639227 246.482274 
L 418.734825 251.472787 
" clip-path="url(#pecee224202)" style="fill: none; stroke: #c371d2"></path>
   </g>
   <g id="legend_1">
    <g id="patch_5">
     <path d="M 348.677854 79.404646 
L 425.165354 79.404646 
L 425.165354 23.634646 
L 348.677854 23.634646 
z
" style="fill: #ffffff; stroke: #000000; stroke-linejoin: miter"></path>
    </g>
    <g id="line2d_25">
     <path d="M 355.077854 33.313396 
L 363.077854 33.313396 
L 371.077854 33.313396 
" style="fill: none; stroke: #009afa; stroke-linejoin: miter"></path>
    </g>
    <g id="text_14">
     <!-- simulans -->
     <g transform="translate(377.477854 36.113396) scale(0.08 -0.08)">
      <defs>
       <path id="DejaVuSans-6d" d="M 3328 2828 
Q 3544 3216 3844 3400 
Q 4144 3584 4550 3584 
Q 5097 3584 5394 3201 
Q 5691 2819 5691 2113 
L 5691 0 
L 5113 0 
L 5113 2094 
Q 5113 2597 4934 2840 
Q 4756 3084 4391 3084 
Q 3944 3084 3684 2787 
Q 3425 2491 3425 1978 
L 3425 0 
L 2847 0 
L 2847 2094 
Q 2847 2600 2669 2842 
Q 2491 3084 2119 3084 
Q 1678 3084 1418 2786 
Q 1159 2488 1159 1978 
L 1159 0 
L 581 0 
L 581 3500 
L 1159 3500 
L 1159 2956 
Q 1356 3278 1631 3431 
Q 1906 3584 2284 3584 
Q 2666 3584 2933 3390 
Q 3200 3197 3328 2828 
z
" transform="scale(0.015625)"></path>
      </defs>
      <use xlink:href="#DejaVuSans-73"></use>
      <use xlink:href="#DejaVuSans-69" x="52.099609"></use>
      <use xlink:href="#DejaVuSans-6d" x="79.882812"></use>
      <use xlink:href="#DejaVuSans-75" x="177.294922"></use>
      <use xlink:href="#DejaVuSans-6c" x="240.673828"></use>
      <use xlink:href="#DejaVuSans-61" x="268.457031"></use>
      <use xlink:href="#DejaVuSans-6e" x="329.736328"></use>
      <use xlink:href="#DejaVuSans-73" x="393.115234"></use>
     </g>
    </g>
    <g id="line2d_26">
     <path d="M 355.077854 45.055896 
L 363.077854 45.055896 
L 371.077854 45.055896 
" style="fill: none; stroke: #e36f47; stroke-linejoin: miter"></path>
    </g>
    <g id="text_15">
     <!-- willistoni -->
     <g transform="translate(377.477854 47.855896) scale(0.08 -0.08)">
      <use xlink:href="#DejaVuSans-77"></use>
      <use xlink:href="#DejaVuSans-69" x="81.787109"></use>
      <use xlink:href="#DejaVuSans-6c" x="109.570312"></use>
      <use xlink:href="#DejaVuSans-6c" x="137.353516"></use>
      <use xlink:href="#DejaVuSans-69" x="165.136719"></use>
      <use xlink:href="#DejaVuSans-73" x="192.919922"></use>
      <use xlink:href="#DejaVuSans-74" x="245.019531"></use>
      <use xlink:href="#DejaVuSans-6f" x="284.228516"></use>
      <use xlink:href="#DejaVuSans-6e" x="345.410156"></use>
      <use xlink:href="#DejaVuSans-69" x="408.789062"></use>
     </g>
    </g>
    <g id="line2d_27">
     <path d="M 355.077854 56.798396 
L 363.077854 56.798396 
L 371.077854 56.798396 
" style="fill: none; stroke: #3ea44e; stroke-linejoin: miter"></path>
    </g>
    <g id="text_16">
     <!-- sechellia -->
     <g transform="translate(377.477854 59.598396) scale(0.08 -0.08)">
      <use xlink:href="#DejaVuSans-73"></use>
      <use xlink:href="#DejaVuSans-65" x="52.099609"></use>
      <use xlink:href="#DejaVuSans-63" x="113.623047"></use>
      <use xlink:href="#DejaVuSans-68" x="168.603516"></use>
      <use xlink:href="#DejaVuSans-65" x="231.982422"></use>
      <use xlink:href="#DejaVuSans-6c" x="293.505859"></use>
      <use xlink:href="#DejaVuSans-6c" x="321.289062"></use>
      <use xlink:href="#DejaVuSans-69" x="349.072266"></use>
      <use xlink:href="#DejaVuSans-61" x="376.855469"></use>
     </g>
    </g>
    <g id="line2d_28">
     <path d="M 355.077854 68.540896 
L 363.077854 68.540896 
L 371.077854 68.540896 
" style="fill: none; stroke: #c371d2; stroke-linejoin: miter"></path>
    </g>
    <g id="text_17">
     <!-- grimshawi -->
     <g transform="translate(377.477854 71.340896) scale(0.08 -0.08)">
      <use xlink:href="#DejaVuSans-67"></use>
      <use xlink:href="#DejaVuSans-72" x="63.476562"></use>
      <use xlink:href="#DejaVuSans-69" x="104.589844"></use>
      <use xlink:href="#DejaVuSans-6d" x="132.373047"></use>
      <use xlink:href="#DejaVuSans-73" x="229.785156"></use>
      <use xlink:href="#DejaVuSans-68" x="281.884766"></use>
      <use xlink:href="#DejaVuSans-61" x="345.263672"></use>
      <use xlink:href="#DejaVuSans-77" x="406.542969"></use>
      <use xlink:href="#DejaVuSans-69" x="488.330078"></use>
     </g>
    </g>
   </g>
  </g>
 </g>
 <defs>
  <clipPath id="pecee224202">
   <rect x="60.619984" y="19.634646" width="368.54537" height="238.590709"></rect>
  </clipPath>
 </defs>
</svg>