<svg xmlns:xlink="http://www.w3.org/1999/xlink" width="432pt" height="288pt" viewBox="0 0 432 288" xmlns="http://www.w3.org/2000/svg" version="1.1">
 <metadata>
  <rdf:rdf xmlns:dc="http://purl.org/dc/elements/1.1/" xmlns:cc="http://creativecommons.org/ns#" xmlns:rdf="http://www.w3.org/1999/02/22-rdf-syntax-ns#">
   <cc:work>
    <dc:type rdf:resource="http://purl.org/dc/dcmitype/StillImage"></dc:type>
    <dc:date>2022-11-27T16:04:52.701266</dc:date>
    <dc:format>image/svg+xml</dc:format>
    <dc:creator>
     <cc:agent>
      <dc:title>Matplotlib v3.6.2, https://matplotlib.org/</dc:title>
     </cc:agent>
    </dc:creator>
   </cc:work>
  </rdf:rdf>
 </metadata>
 <defs>
  <style type="text/css">*{stroke-linejoin: round; stroke-linecap: butt}</style>
 </defs>
 <g id="figure_1">
  <g id="patch_1">
   <path d="M 0 288 
L 432 288 
L 432 0 
L 0 0 
z
" style="fill: #ffffff"></path>
  </g>
  <g id="axes_1">
   <g id="patch_2">
    <path d="M 55.316291 259.665354 
L 429.165354 259.665354 
L 429.165354 19.634646 
L 55.316291 19.634646 
z
" style="fill: #ffffff"></path>
   </g>
   <g id="matplotlib.axis_1">
    <g id="xtick_1">
     <g id="line2d_1">
      <path d="M 110.902269 259.665354 
L 110.902269 19.634646 
" clip-path="url(#p8c0d3c7d37)" style="fill: none; stroke: #000000; stroke-opacity: 0.1; stroke-width: 0.5; stroke-linecap: square"></path>
     </g>
     <g id="line2d_2">
      <defs>
       <path id="m9d71ccacda" d="M 0 0 
L 0 -2.5 
" style="stroke: #000000; stroke-width: 0.5"></path>
      </defs>
      <g>
       <use xlink:href="#m9d71ccacda" x="110.902269" y="259.665354" style="stroke: #000000; stroke-width: 0.5"></use>
      </g>
     </g>
     <g id="text_1">
      <!-- blastn -->
      <g transform="translate(98.613519 269.244104) scale(0.08 -0.08)">
       <defs>
        <path id="DejaVuSans-62" d="M 3116 1747 
Q 3116 2381 2855 2742 
Q 2594 3103 2138 3103 
Q 1681 3103 1420 2742 
Q 1159 2381 1159 1747 
Q 1159 1113 1420 752 
Q 1681 391 2138 391 
Q 2594 391 2855 752 
Q 3116 1113 3116 1747 
z
M 1159 2969 
Q 1341 3281 1617 3432 
Q 1894 3584 2278 3584 
Q 2916 3584 3314 3078 
Q 3713 2572 3713 1747 
Q 3713 922 3314 415 
Q 2916 -91 2278 -91 
Q 1894 -91 1617 61 
Q 1341 213 1159 525 
L 1159 0 
L 581 0 
L 581 4863 
L 1159 4863 
L 1159 2969 
z
" transform="scale(0.015625)"></path>
        <path id="DejaVuSans-6c" d="M 603 4863 
L 1178 4863 
L 1178 0 
L 603 0 
L 603 4863 
z
" transform="scale(0.015625)"></path>
        <path id="DejaVuSans-61" d="M 2194 1759 
Q 1497 1759 1228 1600 
Q 959 1441 959 1056 
Q 959 750 1161 570 
Q 1363 391 1709 391 
Q 2188 391 2477 730 
Q 2766 1069 2766 1631 
L 2766 1759 
L 2194 1759 
z
M 3341 1997 
L 3341 0 
L 2766 0 
L 2766 531 
Q 2569 213 2275 61 
Q 1981 -91 1556 -91 
Q 1019 -91 701 211 
Q 384 513 384 1019 
Q 384 1609 779 1909 
Q 1175 2209 1959 2209 
L 2766 2209 
L 2766 2266 
Q 2766 2663 2505 2880 
Q 2244 3097 1772 3097 
Q 1472 3097 1187 3025 
Q 903 2953 641 2809 
L 641 3341 
Q 956 3463 1253 3523 
Q 1550 3584 1831 3584 
Q 2591 3584 2966 3190 
Q 3341 2797 3341 1997 
z
" transform="scale(0.015625)"></path>
        <path id="DejaVuSans-73" d="M 2834 3397 
L 2834 2853 
Q 2591 2978 2328 3040 
Q 2066 3103 1784 3103 
Q 1356 3103 1142 2972 
Q 928 2841 928 2578 
Q 928 2378 1081 2264 
Q 1234 2150 1697 2047 
L 1894 2003 
Q 2506 1872 2764 1633 
Q 3022 1394 3022 966 
Q 3022 478 2636 193 
Q 2250 -91 1575 -91 
Q 1294 -91 989 -36 
Q 684 19 347 128 
L 347 722 
Q 666 556 975 473 
Q 1284 391 1588 391 
Q 1994 391 2212 530 
Q 2431 669 2431 922 
Q 2431 1156 2273 1281 
Q 2116 1406 1581 1522 
L 1381 1569 
Q 847 1681 609 1914 
Q 372 2147 372 2553 
Q 372 3047 722 3315 
Q 1072 3584 1716 3584 
Q 2034 3584 2315 3537 
Q 2597 3491 2834 3397 
z
" transform="scale(0.015625)"></path>
        <path id="DejaVuSans-74" d="M 1172 4494 
L 1172 3500 
L 2356 3500 
L 2356 3053 
L 1172 3053 
L 1172 1153 
Q 1172 725 1289 603 
Q 1406 481 1766 481 
L 2356 481 
L 2356 0 
L 1766 0 
Q 1100 0 847 248 
Q 594 497 594 1153 
L 594 3053 
L 172 3053 
L 172 3500 
L 594 3500 
L 594 4494 
L 1172 4494 
z
" transform="scale(0.015625)"></path>
        <path id="DejaVuSans-6e" d="M 3513 2113 
L 3513 0 
L 2938 0 
L 2938 2094 
Q 2938 2591 2744 2837 
Q 2550 3084 2163 3084 
Q 1697 3084 1428 2787 
Q 1159 2491 1159 1978 
L 1159 0 
L 581 0 
L 581 3500 
L 1159 3500 
L 1159 2956 
Q 1366 3272 1645 3428 
Q 1925 3584 2291 3584 
Q 2894 3584 3203 3211 
Q 3513 2838 3513 2113 
z
" transform="scale(0.015625)"></path>
       </defs>
       <use xlink:href="#DejaVuSans-62"></use>
       <use xlink:href="#DejaVuSans-6c" x="63.476562"></use>
       <use xlink:href="#DejaVuSans-61" x="91.259766"></use>
       <use xlink:href="#DejaVuSans-73" x="152.539062"></use>
       <use xlink:href="#DejaVuSans-74" x="204.638672"></use>
       <use xlink:href="#DejaVuSans-6e" x="243.847656"></use>
      </g>
     </g>
    </g>
    <g id="xtick_2">
     <g id="line2d_3">
      <path d="M 198.461305 259.665354 
L 198.461305 19.634646 
" clip-path="url(#p8c0d3c7d37)" style="fill: none; stroke: #000000; stroke-opacity: 0.1; stroke-width: 0.5; stroke-linecap: square"></path>
     </g>
     <g id="line2d_4">
      <g>
       <use xlink:href="#m9d71ccacda" x="198.461305" y="259.665354" style="stroke: #000000; stroke-width: 0.5"></use>
      </g>
     </g>
     <g id="text_2">
      <!-- tblastn -->
      <g transform="translate(184.60443 269.244104) scale(0.08 -0.08)">
       <use xlink:href="#DejaVuSans-74"></use>
       <use xlink:href="#DejaVuSans-62" x="39.208984"></use>
       <use xlink:href="#DejaVuSans-6c" x="102.685547"></use>
       <use xlink:href="#DejaVuSans-61" x="130.46875"></use>
       <use xlink:href="#DejaVuSans-73" x="191.748047"></use>
       <use xlink:href="#DejaVuSans-74" x="243.847656"></use>
       <use xlink:href="#DejaVuSans-6e" x="283.056641"></use>
      </g>
     </g>
    </g>
    <g id="xtick_3">
     <g id="line2d_5">
      <path d="M 286.02034 259.665354 
L 286.02034 19.634646 
" clip-path="url(#p8c0d3c7d37)" style="fill: none; stroke: #000000; stroke-opacity: 0.1; stroke-width: 0.5; stroke-linecap: square"></path>
     </g>
     <g id="line2d_6">
      <g>
       <use xlink:href="#m9d71ccacda" x="286.02034" y="259.665354" style="stroke: #000000; stroke-width: 0.5"></use>
      </g>
     </g>
     <g id="text_3">
      <!-- augustus -->
      <g transform="translate(267.68909 269.244104) scale(0.08 -0.08)">
       <defs>
        <path id="DejaVuSans-75" d="M 544 1381 
L 544 3500 
L 1119 3500 
L 1119 1403 
Q 1119 906 1312 657 
Q 1506 409 1894 409 
Q 2359 409 2629 706 
Q 2900 1003 2900 1516 
L 2900 3500 
L 3475 3500 
L 3475 0 
L 2900 0 
L 2900 538 
Q 2691 219 2414 64 
Q 2138 -91 1772 -91 
Q 1169 -91 856 284 
Q 544 659 544 1381 
z
M 1991 3584 
L 1991 3584 
z
" transform="scale(0.015625)"></path>
        <path id="DejaVuSans-67" d="M 2906 1791 
Q 2906 2416 2648 2759 
Q 2391 3103 1925 3103 
Q 1463 3103 1205 2759 
Q 947 2416 947 1791 
Q 947 1169 1205 825 
Q 1463 481 1925 481 
Q 2391 481 2648 825 
Q 2906 1169 2906 1791 
z
M 3481 434 
Q 3481 -459 3084 -895 
Q 2688 -1331 1869 -1331 
Q 1566 -1331 1297 -1286 
Q 1028 -1241 775 -1147 
L 775 -588 
Q 1028 -725 1275 -790 
Q 1522 -856 1778 -856 
Q 2344 -856 2625 -561 
Q 2906 -266 2906 331 
L 2906 616 
Q 2728 306 2450 153 
Q 2172 0 1784 0 
Q 1141 0 747 490 
Q 353 981 353 1791 
Q 353 2603 747 3093 
Q 1141 3584 1784 3584 
Q 2172 3584 2450 3431 
Q 2728 3278 2906 2969 
L 2906 3500 
L 3481 3500 
L 3481 434 
z
" transform="scale(0.015625)"></path>
       </defs>
       <use xlink:href="#DejaVuSans-61"></use>
       <use xlink:href="#DejaVuSans-75" x="61.279297"></use>
       <use xlink:href="#DejaVuSans-67" x="124.658203"></use>
       <use xlink:href="#DejaVuSans-75" x="188.134766"></use>
       <use xlink:href="#DejaVuSans-73" x="251.513672"></use>
       <use xlink:href="#DejaVuSans-74" x="303.613281"></use>
       <use xlink:href="#DejaVuSans-75" x="342.822266"></use>
       <use xlink:href="#DejaVuSans-73" x="406.201172"></use>
      </g>
     </g>
    </g>
    <g id="xtick_4">
     <g id="line2d_7">
      <path d="M 373.579376 259.665354 
L 373.579376 19.634646 
" clip-path="url(#p8c0d3c7d37)" style="fill: none; stroke: #000000; stroke-opacity: 0.1; stroke-width: 0.5; stroke-linecap: square"></path>
     </g>
     <g id="line2d_8">
      <g>
       <use xlink:href="#m9d71ccacda" x="373.579376" y="259.665354" style="stroke: #000000; stroke-width: 0.5"></use>
      </g>
     </g>
     <g id="text_4">
      <!-- groundtruth -->
      <g transform="translate(349.578126 269.244104) scale(0.08 -0.08)">
       <defs>
        <path id="DejaVuSans-72" d="M 2631 2963 
Q 2534 3019 2420 3045 
Q 2306 3072 2169 3072 
Q 1681 3072 1420 2755 
Q 1159 2438 1159 1844 
L 1159 0 
L 581 0 
L 581 3500 
L 1159 3500 
L 1159 2956 
Q 1341 3275 1631 3429 
Q 1922 3584 2338 3584 
Q 2397 3584 2469 3576 
Q 2541 3569 2628 3553 
L 2631 2963 
z
" transform="scale(0.015625)"></path>
        <path id="DejaVuSans-6f" d="M 1959 3097 
Q 1497 3097 1228 2736 
Q 959 2375 959 1747 
Q 959 1119 1226 758 
Q 1494 397 1959 397 
Q 2419 397 2687 759 
Q 2956 1122 2956 1747 
Q 2956 2369 2687 2733 
Q 2419 3097 1959 3097 
z
M 1959 3584 
Q 2709 3584 3137 3096 
Q 3566 2609 3566 1747 
Q 3566 888 3137 398 
Q 2709 -91 1959 -91 
Q 1206 -91 779 398 
Q 353 888 353 1747 
Q 353 2609 779 3096 
Q 1206 3584 1959 3584 
z
" transform="scale(0.015625)"></path>
        <path id="DejaVuSans-64" d="M 2906 2969 
L 2906 4863 
L 3481 4863 
L 3481 0 
L 2906 0 
L 2906 525 
Q 2725 213 2448 61 
Q 2172 -91 1784 -91 
Q 1150 -91 751 415 
Q 353 922 353 1747 
Q 353 2572 751 3078 
Q 1150 3584 1784 3584 
Q 2172 3584 2448 3432 
Q 2725 3281 2906 2969 
z
M 947 1747 
Q 947 1113 1208 752 
Q 1469 391 1925 391 
Q 2381 391 2643 752 
Q 2906 1113 2906 1747 
Q 2906 2381 2643 2742 
Q 2381 3103 1925 3103 
Q 1469 3103 1208 2742 
Q 947 2381 947 1747 
z
" transform="scale(0.015625)"></path>
        <path id="DejaVuSans-68" d="M 3513 2113 
L 3513 0 
L 2938 0 
L 2938 2094 
Q 2938 2591 2744 2837 
Q 2550 3084 2163 3084 
Q 1697 3084 1428 2787 
Q 1159 2491 1159 1978 
L 1159 0 
L 581 0 
L 581 4863 
L 1159 4863 
L 1159 2956 
Q 1366 3272 1645 3428 
Q 1925 3584 2291 3584 
Q 2894 3584 3203 3211 
Q 3513 2838 3513 2113 
z
" transform="scale(0.015625)"></path>
       </defs>
       <use xlink:href="#DejaVuSans-67"></use>
       <use xlink:href="#DejaVuSans-72" x="63.476562"></use>
       <use xlink:href="#DejaVuSans-6f" x="102.339844"></use>
       <use xlink:href="#DejaVuSans-75" x="163.521484"></use>
       <use xlink:href="#DejaVuSans-6e" x="226.900391"></use>
       <use xlink:href="#DejaVuSans-64" x="290.279297"></use>
       <use xlink:href="#DejaVuSans-74" x="353.755859"></use>
       <use xlink:href="#DejaVuSans-72" x="392.964844"></use>
       <use xlink:href="#DejaVuSans-75" x="434.078125"></use>
       <use xlink:href="#DejaVuSans-74" x="497.457031"></use>
       <use xlink:href="#DejaVuSans-68" x="536.666016"></use>
      </g>
     </g>
    </g>
    <g id="text_5">
     <!-- Method -->
     <g transform="translate(221.612385 283.266136) scale(0.11 -0.11)">
      <defs>
       <path id="DejaVuSans-4d" d="M 628 4666 
L 1569 4666 
L 2759 1491 
L 3956 4666 
L 4897 4666 
L 4897 0 
L 4281 0 
L 4281 4097 
L 3078 897 
L 2444 897 
L 1241 4097 
L 1241 0 
L 628 0 
L 628 4666 
z
" transform="scale(0.015625)"></path>
       <path id="DejaVuSans-65" d="M 3597 1894 
L 3597 1613 
L 953 1613 
Q 991 1019 1311 708 
Q 1631 397 2203 397 
Q 2534 397 2845 478 
Q 3156 559 3463 722 
L 3463 178 
Q 3153 47 2828 -22 
Q 2503 -91 2169 -91 
Q 1331 -91 842 396 
Q 353 884 353 1716 
Q 353 2575 817 3079 
Q 1281 3584 2069 3584 
Q 2775 3584 3186 3129 
Q 3597 2675 3597 1894 
z
M 3022 2063 
Q 3016 2534 2758 2815 
Q 2500 3097 2075 3097 
Q 1594 3097 1305 2825 
Q 1016 2553 972 2059 
L 3022 2063 
z
" transform="scale(0.015625)"></path>
      </defs>
      <use xlink:href="#DejaVuSans-4d"></use>
      <use xlink:href="#DejaVuSans-65" x="86.279297"></use>
      <use xlink:href="#DejaVuSans-74" x="147.802734"></use>
      <use xlink:href="#DejaVuSans-68" x="187.011719"></use>
      <use xlink:href="#DejaVuSans-6f" x="250.390625"></use>
      <use xlink:href="#DejaVuSans-64" x="311.572266"></use>
     </g>
    </g>
   </g>
   <g id="matplotlib.axis_2">
    <g id="ytick_1">
     <g id="line2d_9">
      <path d="M 55.316291 252.872032 
L 429.165354 252.872032 
" clip-path="url(#p8c0d3c7d37)" style="fill: none; stroke: #000000; stroke-opacity: 0.1; stroke-width: 0.5; stroke-linecap: square"></path>
     </g>
     <g id="line2d_10">
      <defs>
       <path id="m2f4f09277a" d="M 0 0 
L 2.5 0 
" style="stroke: #000000; stroke-width: 0.5"></path>
      </defs>
      <g>
       <use xlink:href="#m2f4f09277a" x="55.316291" y="252.872032" style="stroke: #000000; stroke-width: 0.5"></use>
      </g>
     </g>
     <g id="text_6">
      <!-- $0$ -->
      <g transform="translate(46.696291 255.911407) scale(0.08 -0.08)">
       <defs>
        <path id="DejaVuSans-30" d="M 2034 4250 
Q 1547 4250 1301 3770 
Q 1056 3291 1056 2328 
Q 1056 1369 1301 889 
Q 1547 409 2034 409 
Q 2525 409 2770 889 
Q 3016 1369 3016 2328 
Q 3016 3291 2770 3770 
Q 2525 4250 2034 4250 
z
M 2034 4750 
Q 2819 4750 3233 4129 
Q 3647 3509 3647 2328 
Q 3647 1150 3233 529 
Q 2819 -91 2034 -91 
Q 1250 -91 836 529 
Q 422 1150 422 2328 
Q 422 3509 836 4129 
Q 1250 4750 2034 4750 
z
" transform="scale(0.015625)"></path>
       </defs>
       <use xlink:href="#DejaVuSans-30" transform="translate(0 0.78125)"></use>
      </g>
     </g>
    </g>
    <g id="ytick_2">
     <g id="line2d_11">
      <path d="M 55.316291 204.607931 
L 429.165354 204.607931 
" clip-path="url(#p8c0d3c7d37)" style="fill: none; stroke: #000000; stroke-opacity: 0.1; stroke-width: 0.5; stroke-linecap: square"></path>
     </g>
     <g id="line2d_12">
      <g>
       <use xlink:href="#m2f4f09277a" x="55.316291" y="204.607931" style="stroke: #000000; stroke-width: 0.5"></use>
      </g>
     </g>
     <g id="text_7">
      <!-- $2.0×10^{5}$ -->
      <g transform="translate(18.296291 207.647306) scale(0.08 -0.08)">
       <defs>
        <path id="DejaVuSans-32" d="M 1228 531 
L 3431 531 
L 3431 0 
L 469 0 
L 469 531 
Q 828 903 1448 1529 
Q 2069 2156 2228 2338 
Q 2531 2678 2651 2914 
Q 2772 3150 2772 3378 
Q 2772 3750 2511 3984 
Q 2250 4219 1831 4219 
Q 1534 4219 1204 4116 
Q 875 4013 500 3803 
L 500 4441 
Q 881 4594 1212 4672 
Q 1544 4750 1819 4750 
Q 2544 4750 2975 4387 
Q 3406 4025 3406 3419 
Q 3406 3131 3298 2873 
Q 3191 2616 2906 2266 
Q 2828 2175 2409 1742 
Q 1991 1309 1228 531 
z
" transform="scale(0.015625)"></path>
        <path id="DejaVuSans-2e" d="M 684 794 
L 1344 794 
L 1344 0 
L 684 0 
L 684 794 
z
" transform="scale(0.015625)"></path>
        <path id="DejaVuSans-d7" d="M 4488 3438 
L 3059 2003 
L 4488 575 
L 4116 197 
L 2681 1631 
L 1247 197 
L 878 575 
L 2303 2003 
L 878 3438 
L 1247 3816 
L 2681 2381 
L 4116 3816 
L 4488 3438 
z
" transform="scale(0.015625)"></path>
        <path id="DejaVuSans-31" d="M 794 531 
L 1825 531 
L 1825 4091 
L 703 3866 
L 703 4441 
L 1819 4666 
L 2450 4666 
L 2450 531 
L 3481 531 
L 3481 0 
L 794 0 
L 794 531 
z
" transform="scale(0.015625)"></path>
        <path id="DejaVuSans-35" d="M 691 4666 
L 3169 4666 
L 3169 4134 
L 1269 4134 
L 1269 2991 
Q 1406 3038 1543 3061 
Q 1681 3084 1819 3084 
Q 2600 3084 3056 2656 
Q 3513 2228 3513 1497 
Q 3513 744 3044 326 
Q 2575 -91 1722 -91 
Q 1428 -91 1123 -41 
Q 819 9 494 109 
L 494 744 
Q 775 591 1075 516 
Q 1375 441 1709 441 
Q 2250 441 2565 725 
Q 2881 1009 2881 1497 
Q 2881 1984 2565 2268 
Q 2250 2553 1709 2553 
Q 1456 2553 1204 2497 
Q 953 2441 691 2322 
L 691 4666 
z
" transform="scale(0.015625)"></path>
       </defs>
       <use xlink:href="#DejaVuSans-32" transform="translate(0 0.684375)"></use>
       <use xlink:href="#DejaVuSans-2e" transform="translate(63.623047 0.684375)"></use>
       <use xlink:href="#DejaVuSans-30" transform="translate(95.410156 0.684375)"></use>
       <use xlink:href="#DejaVuSans-d7" transform="translate(159.033203 0.684375)"></use>
       <use xlink:href="#DejaVuSans-31" transform="translate(242.822266 0.684375)"></use>
       <use xlink:href="#DejaVuSans-30" transform="translate(306.445312 0.684375)"></use>
       <use xlink:href="#DejaVuSans-35" transform="translate(371.025391 38.965625) scale(0.7)"></use>
      </g>
     </g>
    </g>
    <g id="ytick_3">
     <g id="line2d_13">
      <path d="M 55.316291 156.343829 
L 429.165354 156.343829 
" clip-path="url(#p8c0d3c7d37)" style="fill: none; stroke: #000000; stroke-opacity: 0.1; stroke-width: 0.5; stroke-linecap: square"></path>
     </g>
     <g id="line2d_14">
      <g>
       <use xlink:href="#m2f4f09277a" x="55.316291" y="156.343829" style="stroke: #000000; stroke-width: 0.5"></use>
      </g>
     </g>
     <g id="text_8">
      <!-- $4.0×10^{5}$ -->
      <g transform="translate(18.296291 159.383204) scale(0.08 -0.08)">
       <defs>
        <path id="DejaVuSans-34" d="M 2419 4116 
L 825 1625 
L 2419 1625 
L 2419 4116 
z
M 2253 4666 
L 3047 4666 
L 3047 1625 
L 3713 1625 
L 3713 1100 
L 3047 1100 
L 3047 0 
L 2419 0 
L 2419 1100 
L 313 1100 
L 313 1709 
L 2253 4666 
z
" transform="scale(0.015625)"></path>
       </defs>
       <use xlink:href="#DejaVuSans-34" transform="translate(0 0.684375)"></use>
       <use xlink:href="#DejaVuSans-2e" transform="translate(63.623047 0.684375)"></use>
       <use xlink:href="#DejaVuSans-30" transform="translate(95.410156 0.684375)"></use>
       <use xlink:href="#DejaVuSans-d7" transform="translate(159.033203 0.684375)"></use>
       <use xlink:href="#DejaVuSans-31" transform="translate(242.822266 0.684375)"></use>
       <use xlink:href="#DejaVuSans-30" transform="translate(306.445312 0.684375)"></use>
       <use xlink:href="#DejaVuSans-35" transform="translate(371.025391 38.965625) scale(0.7)"></use>
      </g>
     </g>
    </g>
    <g id="ytick_4">
     <g id="line2d_15">
      <path d="M 55.316291 108.079727 
L 429.165354 108.079727 
" clip-path="url(#p8c0d3c7d37)" style="fill: none; stroke: #000000; stroke-opacity: 0.1; stroke-width: 0.5; stroke-linecap: square"></path>
     </g>
     <g id="line2d_16">
      <g>
       <use xlink:href="#m2f4f09277a" x="55.316291" y="108.079727" style="stroke: #000000; stroke-width: 0.5"></use>
      </g>
     </g>
     <g id="text_9">
      <!-- $6.0×10^{5}$ -->
      <g transform="translate(18.296291 111.119102) scale(0.08 -0.08)">
       <defs>
        <path id="DejaVuSans-36" d="M 2113 2584 
Q 1688 2584 1439 2293 
Q 1191 2003 1191 1497 
Q 1191 994 1439 701 
Q 1688 409 2113 409 
Q 2538 409 2786 701 
Q 3034 994 3034 1497 
Q 3034 2003 2786 2293 
Q 2538 2584 2113 2584 
z
M 3366 4563 
L 3366 3988 
Q 3128 4100 2886 4159 
Q 2644 4219 2406 4219 
Q 1781 4219 1451 3797 
Q 1122 3375 1075 2522 
Q 1259 2794 1537 2939 
Q 1816 3084 2150 3084 
Q 2853 3084 3261 2657 
Q 3669 2231 3669 1497 
Q 3669 778 3244 343 
Q 2819 -91 2113 -91 
Q 1303 -91 875 529 
Q 447 1150 447 2328 
Q 447 3434 972 4092 
Q 1497 4750 2381 4750 
Q 2619 4750 2861 4703 
Q 3103 4656 3366 4563 
z
" transform="scale(0.015625)"></path>
       </defs>
       <use xlink:href="#DejaVuSans-36" transform="translate(0 0.684375)"></use>
       <use xlink:href="#DejaVuSans-2e" transform="translate(63.623047 0.684375)"></use>
       <use xlink:href="#DejaVuSans-30" transform="translate(95.410156 0.684375)"></use>
       <use xlink:href="#DejaVuSans-d7" transform="translate(159.033203 0.684375)"></use>
       <use xlink:href="#DejaVuSans-31" transform="translate(242.822266 0.684375)"></use>
       <use xlink:href="#DejaVuSans-30" transform="translate(306.445312 0.684375)"></use>
       <use xlink:href="#DejaVuSans-35" transform="translate(371.025391 38.965625) scale(0.7)"></use>
      </g>
     </g>
    </g>
    <g id="ytick_5">
     <g id="line2d_17">
      <path d="M 55.316291 59.815625 
L 429.165354 59.815625 
" clip-path="url(#p8c0d3c7d37)" style="fill: none; stroke: #000000; stroke-opacity: 0.1; stroke-width: 0.5; stroke-linecap: square"></path>
     </g>
     <g id="line2d_18">
      <g>
       <use xlink:href="#m2f4f09277a" x="55.316291" y="59.815625" style="stroke: #000000; stroke-width: 0.5"></use>
      </g>
     </g>
     <g id="text_10">
      <!-- $8.0×10^{5}$ -->
      <g transform="translate(18.296291 62.855) scale(0.08 -0.08)">
       <defs>
        <path id="DejaVuSans-38" d="M 2034 2216 
Q 1584 2216 1326 1975 
Q 1069 1734 1069 1313 
Q 1069 891 1326 650 
Q 1584 409 2034 409 
Q 2484 409 2743 651 
Q 3003 894 3003 1313 
Q 3003 1734 2745 1975 
Q 2488 2216 2034 2216 
z
M 1403 2484 
Q 997 2584 770 2862 
Q 544 3141 544 3541 
Q 544 4100 942 4425 
Q 1341 4750 2034 4750 
Q 2731 4750 3128 4425 
Q 3525 4100 3525 3541 
Q 3525 3141 3298 2862 
Q 3072 2584 2669 2484 
Q 3125 2378 3379 2068 
Q 3634 1759 3634 1313 
Q 3634 634 3220 271 
Q 2806 -91 2034 -91 
Q 1263 -91 848 271 
Q 434 634 434 1313 
Q 434 1759 690 2068 
Q 947 2378 1403 2484 
z
M 1172 3481 
Q 1172 3119 1398 2916 
Q 1625 2713 2034 2713 
Q 2441 2713 2670 2916 
Q 2900 3119 2900 3481 
Q 2900 3844 2670 4047 
Q 2441 4250 2034 4250 
Q 1625 4250 1398 4047 
Q 1172 3844 1172 3481 
z
" transform="scale(0.015625)"></path>
       </defs>
       <use xlink:href="#DejaVuSans-38" transform="translate(0 0.684375)"></use>
       <use xlink:href="#DejaVuSans-2e" transform="translate(63.623047 0.684375)"></use>
       <use xlink:href="#DejaVuSans-30" transform="translate(95.410156 0.684375)"></use>
       <use xlink:href="#DejaVuSans-d7" transform="translate(159.033203 0.684375)"></use>
       <use xlink:href="#DejaVuSans-31" transform="translate(242.822266 0.684375)"></use>
       <use xlink:href="#DejaVuSans-30" transform="translate(306.445312 0.684375)"></use>
       <use xlink:href="#DejaVuSans-35" transform="translate(371.025391 38.965625) scale(0.7)"></use>
      </g>
     </g>
    </g>
    <g id="text_11">
     <!-- Number of genes -->
     <g transform="translate(12.008634 187.152812) rotate(-90) scale(0.11 -0.11)">
      <defs>
       <path id="DejaVuSans-4e" d="M 628 4666 
L 1478 4666 
L 3547 763 
L 3547 4666 
L 4159 4666 
L 4159 0 
L 3309 0 
L 1241 3903 
L 1241 0 
L 628 0 
L 628 4666 
z
" transform="scale(0.015625)"></path>
       <path id="DejaVuSans-6d" d="M 3328 2828 
Q 3544 3216 3844 3400 
Q 4144 3584 4550 3584 
Q 5097 3584 5394 3201 
Q 5691 2819 5691 2113 
L 5691 0 
L 5113 0 
L 5113 2094 
Q 5113 2597 4934 2840 
Q 4756 3084 4391 3084 
Q 3944 3084 3684 2787 
Q 3425 2491 3425 1978 
L 3425 0 
L 2847 0 
L 2847 2094 
Q 2847 2600 2669 2842 
Q 2491 3084 2119 3084 
Q 1678 3084 1418 2786 
Q 1159 2488 1159 1978 
L 1159 0 
L 581 0 
L 581 3500 
L 1159 3500 
L 1159 2956 
Q 1356 3278 1631 3431 
Q 1906 3584 2284 3584 
Q 2666 3584 2933 3390 
Q 3200 3197 3328 2828 
z
" transform="scale(0.015625)"></path>
       <path id="DejaVuSans-20" transform="scale(0.015625)"></path>
       <path id="DejaVuSans-66" d="M 2375 4863 
L 2375 4384 
L 1825 4384 
Q 1516 4384 1395 4259 
Q 1275 4134 1275 3809 
L 1275 3500 
L 2222 3500 
L 2222 3053 
L 1275 3053 
L 1275 0 
L 697 0 
L 697 3053 
L 147 3053 
L 147 3500 
L 697 3500 
L 697 3744 
Q 697 4328 969 4595 
Q 1241 4863 1831 4863 
L 2375 4863 
z
" transform="scale(0.015625)"></path>
      </defs>
      <use xlink:href="#DejaVuSans-4e"></use>
      <use xlink:href="#DejaVuSans-75" x="74.804688"></use>
      <use xlink:href="#DejaVuSans-6d" x="138.183594"></use>
      <use xlink:href="#DejaVuSans-62" x="235.595703"></use>
      <use xlink:href="#DejaVuSans-65" x="299.072266"></use>
      <use xlink:href="#DejaVuSans-72" x="360.595703"></use>
      <use xlink:href="#DejaVuSans-20" x="401.708984"></use>
      <use xlink:href="#DejaVuSans-6f" x="433.496094"></use>
      <use xlink:href="#DejaVuSans-66" x="494.677734"></use>
      <use xlink:href="#DejaVuSans-20" x="529.882812"></use>
      <use xlink:href="#DejaVuSans-67" x="561.669922"></use>
      <use xlink:href="#DejaVuSans-65" x="625.146484"></use>
      <use xlink:href="#DejaVuSans-6e" x="686.669922"></use>
      <use xlink:href="#DejaVuSans-65" x="750.048828"></use>
      <use xlink:href="#DejaVuSans-73" x="811.572266"></use>
     </g>
    </g>
   </g>
   <g id="patch_3">
    <path d="M 75.878655 207.283451 
L 75.878655 252.872032 
L 145.925883 252.872032 
L 145.925883 207.283451 
L 75.878655 207.283451 
" clip-path="url(#p8c0d3c7d37)" style="fill: #009afa; stroke: #000000; stroke-linejoin: miter"></path>
   </g>
   <g id="patch_4">
    <path d="M 163.43769 36.455559 
L 163.43769 252.872032 
L 233.484919 252.872032 
L 233.484919 36.455559 
L 163.43769 36.455559 
" clip-path="url(#p8c0d3c7d37)" style="fill: #009afa; stroke: #000000; stroke-linejoin: miter"></path>
   </g>
   <g id="patch_5">
    <path d="M 250.996726 235.478374 
L 250.996726 252.872032 
L 321.043955 252.872032 
L 321.043955 235.478374 
L 250.996726 235.478374 
" clip-path="url(#p8c0d3c7d37)" style="fill: #009afa; stroke: #000000; stroke-linejoin: miter"></path>
   </g>
   <g id="patch_6">
    <path d="M 338.555762 208.362636 
L 338.555762 252.872032 
L 408.60299 252.872032 
L 408.60299 208.362636 
L 338.555762 208.362636 
" clip-path="url(#p8c0d3c7d37)" style="fill: #009afa; stroke: #000000; stroke-linejoin: miter"></path>
   </g>
   <g id="PathCollection_1">
    <defs>
     <path id="m71c9829d57" d="M 0 0 
C 0 0 0 0 0 0 
C 0 0 0 0 0 0 
C 0 0 0 0 0 0 
C 0 0 0 0 0 0 
C 0 0 0 0 0 0 
C 0 0 0 0 0 0 
C 0 0 0 0 0 0 
C 0 0 0 0 0 0 
z
" style="stroke: #000000; stroke-opacity: 0"></path>
    </defs>
    <g clip-path="url(#p8c0d3c7d37)">
     <use xlink:href="#m71c9829d57" x="110.902269" y="207.283451" style="fill: #009afa; fill-opacity: 0; stroke: #000000; stroke-opacity: 0"></use>
     <use xlink:href="#m71c9829d57" x="198.461305" y="36.455559" style="fill: #009afa; fill-opacity: 0; stroke: #000000; stroke-opacity: 0"></use>
     <use xlink:href="#m71c9829d57" x="286.02034" y="235.478374" style="fill: #009afa; fill-opacity: 0; stroke: #000000; stroke-opacity: 0"></use>
     <use xlink:href="#m71c9829d57" x="373.579376" y="208.362636" style="fill: #009afa; fill-opacity: 0; stroke: #000000; stroke-opacity: 0"></use>
    </g>
   </g>
   <g id="patch_7">
    <path d="M 75.878655 231.53568 
L 75.878655 252.872032 
L 145.925883 252.872032 
L 145.925883 231.53568 
L 75.878655 231.53568 
" clip-path="url(#p8c0d3c7d37)" style="fill: #e36f47; stroke: #000000; stroke-linejoin: miter"></path>
   </g>
   <g id="patch_8">
    <path d="M 163.43769 28.566309 
L 163.43769 252.872032 
L 233.484919 252.872032 
L 233.484919 28.566309 
L 163.43769 28.566309 
" clip-path="url(#p8c0d3c7d37)" style="fill: #e36f47; stroke: #000000; stroke-linejoin: miter"></path>
   </g>
   <g id="patch_9">
    <path d="M 250.996726 233.396019 
L 250.996726 252.872032 
L 321.043955 252.872032 
L 321.043955 233.396019 
L 250.996726 233.396019 
" clip-path="url(#p8c0d3c7d37)" style="fill: #e36f47; stroke: #000000; stroke-linejoin: miter"></path>
   </g>
   <g id="patch_10">
    <path d="M 338.555762 222.257389 
L 338.555762 252.872032 
L 408.60299 252.872032 
L 408.60299 222.257389 
L 338.555762 222.257389 
" clip-path="url(#p8c0d3c7d37)" style="fill: #e36f47; stroke: #000000; stroke-linejoin: miter"></path>
   </g>
   <g id="PathCollection_2">
    <defs>
     <path id="m0d7b21dda3" d="M 0 0 
C 0 0 0 0 0 0 
C 0 0 0 0 0 0 
C 0 0 0 0 0 0 
C 0 0 0 0 0 0 
C 0 0 0 0 0 0 
C 0 0 0 0 0 0 
C 0 0 0 0 0 0 
C 0 0 0 0 0 0 
z
" style="stroke: #000000; stroke-opacity: 0"></path>
    </defs>
    <g clip-path="url(#p8c0d3c7d37)">
     <use xlink:href="#m0d7b21dda3" x="110.902269" y="231.53568" style="fill: #e36f47; fill-opacity: 0; stroke: #000000; stroke-opacity: 0"></use>
     <use xlink:href="#m0d7b21dda3" x="198.461305" y="28.566309" style="fill: #e36f47; fill-opacity: 0; stroke: #000000; stroke-opacity: 0"></use>
     <use xlink:href="#m0d7b21dda3" x="286.02034" y="233.396019" style="fill: #e36f47; fill-opacity: 0; stroke: #000000; stroke-opacity: 0"></use>
     <use xlink:href="#m0d7b21dda3" x="373.579376" y="222.257389" style="fill: #e36f47; fill-opacity: 0; stroke: #000000; stroke-opacity: 0"></use>
    </g>
   </g>
   <g id="patch_11">
    <path d="M 55.316291 259.665354 
L 55.316291 19.634646 
" style="fill: none; stroke: #000000; stroke-linejoin: miter; stroke-linecap: square"></path>
   </g>
   <g id="patch_12">
    <path d="M 55.316291 259.665354 
L 429.165354 259.665354 
" style="fill: none; stroke: #000000; stroke-linejoin: miter; stroke-linecap: square"></path>
   </g>
   <g id="patch_13">
    <path d="M 75.878655 194.355429 
L 75.878655 252.872032 
L 145.925883 252.872032 
L 145.925883 194.355429 
L 75.878655 194.355429 
" clip-path="url(#p8c0d3c7d37)" style="fill: #3ea44e; stroke: #000000; stroke-linejoin: miter"></path>
   </g>
   <g id="patch_14">
    <path d="M 163.43769 26.427968 
L 163.43769 252.872032 
L 233.484919 252.872032 
L 233.484919 26.427968 
L 163.43769 26.427968 
" clip-path="url(#p8c0d3c7d37)" style="fill: #3ea44e; stroke: #000000; stroke-linejoin: miter"></path>
   </g>
   <g id="patch_15">
    <path d="M 250.996726 234.759963 
L 250.996726 252.872032 
L 321.043955 252.872032 
L 321.043955 234.759963 
L 250.996726 234.759963 
" clip-path="url(#p8c0d3c7d37)" style="fill: #3ea44e; stroke: #000000; stroke-linejoin: miter"></path>
   </g>
   <g id="patch_16">
    <path d="M 338.555762 214.650242 
L 338.555762 252.872032 
L 408.60299 252.872032 
L 408.60299 214.650242 
L 338.555762 214.650242 
" clip-path="url(#p8c0d3c7d37)" style="fill: #3ea44e; stroke: #000000; stroke-linejoin: miter"></path>
   </g>
   <g id="text_12">
    <!-- Number of genes found by each method -->
    <g transform="translate(100.31801 13.634646) scale(0.14 -0.14)">
     <defs>
      <path id="DejaVuSans-79" d="M 2059 -325 
Q 1816 -950 1584 -1140 
Q 1353 -1331 966 -1331 
L 506 -1331 
L 506 -850 
L 844 -850 
Q 1081 -850 1212 -737 
Q 1344 -625 1503 -206 
L 1606 56 
L 191 3500 
L 800 3500 
L 1894 763 
L 2988 3500 
L 3597 3500 
L 2059 -325 
z
" transform="scale(0.015625)"></path>
      <path id="DejaVuSans-63" d="M 3122 3366 
L 3122 2828 
Q 2878 2963 2633 3030 
Q 2388 3097 2138 3097 
Q 1578 3097 1268 2742 
Q 959 2388 959 1747 
Q 959 1106 1268 751 
Q 1578 397 2138 397 
Q 2388 397 2633 464 
Q 2878 531 3122 666 
L 3122 134 
Q 2881 22 2623 -34 
Q 2366 -91 2075 -91 
Q 1284 -91 818 406 
Q 353 903 353 1747 
Q 353 2603 823 3093 
Q 1294 3584 2113 3584 
Q 2378 3584 2631 3529 
Q 2884 3475 3122 3366 
z
" transform="scale(0.015625)"></path>
     </defs>
     <use xlink:href="#DejaVuSans-4e"></use>
     <use xlink:href="#DejaVuSans-75" x="74.804688"></use>
     <use xlink:href="#DejaVuSans-6d" x="138.183594"></use>
     <use xlink:href="#DejaVuSans-62" x="235.595703"></use>
     <use xlink:href="#DejaVuSans-65" x="299.072266"></use>
     <use xlink:href="#DejaVuSans-72" x="360.595703"></use>
     <use xlink:href="#DejaVuSans-20" x="401.708984"></use>
     <use xlink:href="#DejaVuSans-6f" x="433.496094"></use>
     <use xlink:href="#DejaVuSans-66" x="494.677734"></use>
     <use xlink:href="#DejaVuSans-20" x="529.882812"></use>
     <use xlink:href="#DejaVuSans-67" x="561.669922"></use>
     <use xlink:href="#DejaVuSans-65" x="625.146484"></use>
     <use xlink:href="#DejaVuSans-6e" x="686.669922"></use>
     <use xlink:href="#DejaVuSans-65" x="750.048828"></use>
     <use xlink:href="#DejaVuSans-73" x="811.572266"></use>
     <use xlink:href="#DejaVuSans-20" x="863.671875"></use>
     <use xlink:href="#DejaVuSans-66" x="895.458984"></use>
     <use xlink:href="#DejaVuSans-6f" x="930.664062"></use>
     <use xlink:href="#DejaVuSans-75" x="991.845703"></use>
     <use xlink:href="#DejaVuSans-6e" x="1055.224609"></use>
     <use xlink:href="#DejaVuSans-64" x="1118.603516"></use>
     <use xlink:href="#DejaVuSans-20" x="1182.080078"></use>
     <use xlink:href="#DejaVuSans-62" x="1213.867188"></use>
     <use xlink:href="#DejaVuSans-79" x="1277.34375"></use>
     <use xlink:href="#DejaVuSans-20" x="1336.523438"></use>
     <use xlink:href="#DejaVuSans-65" x="1368.310547"></use>
     <use xlink:href="#DejaVuSans-61" x="1429.833984"></use>
     <use xlink:href="#DejaVuSans-63" x="1491.113281"></use>
     <use xlink:href="#DejaVuSans-68" x="1546.09375"></use>
     <use xlink:href="#DejaVuSans-20" x="1609.472656"></use>
     <use xlink:href="#DejaVuSans-6d" x="1641.259766"></use>
     <use xlink:href="#DejaVuSans-65" x="1738.671875"></use>
     <use xlink:href="#DejaVuSans-74" x="1800.195312"></use>
     <use xlink:href="#DejaVuSans-68" x="1839.404297"></use>
     <use xlink:href="#DejaVuSans-6f" x="1902.783203"></use>
     <use xlink:href="#DejaVuSans-64" x="1963.964844"></use>
    </g>
   </g>
   <g id="PathCollection_3">
    <defs>
     <path id="m5dc3c03eaf" d="M 0 0 
C 0 0 0 0 0 0 
C 0 0 0 0 0 0 
C 0 0 0 0 0 0 
C 0 0 0 0 0 0 
C 0 0 0 0 0 0 
C 0 0 0 0 0 0 
C 0 0 0 0 0 0 
C 0 0 0 0 0 0 
z
" style="stroke: #000000; stroke-opacity: 0"></path>
    </defs>
    <g clip-path="url(#p8c0d3c7d37)">
     <use xlink:href="#m5dc3c03eaf" x="110.902269" y="194.355429" style="fill: #3ea44e; fill-opacity: 0; stroke: #000000; stroke-opacity: 0"></use>
     <use xlink:href="#m5dc3c03eaf" x="198.461305" y="26.427968" style="fill: #3ea44e; fill-opacity: 0; stroke: #000000; stroke-opacity: 0"></use>
     <use xlink:href="#m5dc3c03eaf" x="286.02034" y="234.759963" style="fill: #3ea44e; fill-opacity: 0; stroke: #000000; stroke-opacity: 0"></use>
     <use xlink:href="#m5dc3c03eaf" x="373.579376" y="214.650242" style="fill: #3ea44e; fill-opacity: 0; stroke: #000000; stroke-opacity: 0"></use>
    </g>
   </g>
   <g id="patch_17">
    <path d="M 75.878655 242.552443 
L 75.878655 252.872032 
L 145.925883 252.872032 
L 145.925883 242.552443 
L 75.878655 242.552443 
" clip-path="url(#p8c0d3c7d37)" style="fill: #c371d2; stroke: #000000; stroke-linejoin: miter"></path>
   </g>
   <g id="patch_18">
    <path d="M 163.43769 46.118756 
L 163.43769 252.872032 
L 233.484919 252.872032 
L 233.484919 46.118756 
L 163.43769 46.118756 
" clip-path="url(#p8c0d3c7d37)" style="fill: #c371d2; stroke: #000000; stroke-linejoin: miter"></path>
   </g>
   <g id="patch_19">
    <path d="M 250.996726 236.768232 
L 250.996726 252.872032 
L 321.043955 252.872032 
L 321.043955 236.768232 
L 250.996726 236.768232 
" clip-path="url(#p8c0d3c7d37)" style="fill: #c371d2; stroke: #000000; stroke-linejoin: miter"></path>
   </g>
   <g id="patch_20">
    <path d="M 338.555762 224.383181 
L 338.555762 252.872032 
L 408.60299 252.872032 
L 408.60299 224.383181 
L 338.555762 224.383181 
" clip-path="url(#p8c0d3c7d37)" style="fill: #c371d2; stroke: #000000; stroke-linejoin: miter"></path>
   </g>
   <g id="PathCollection_4">
    <defs>
     <path id="ma3ba1f1914" d="M 0 0 
C 0 0 0 0 0 0 
C 0 0 0 0 0 0 
C 0 0 0 0 0 0 
C 0 0 0 0 0 0 
C 0 0 0 0 0 0 
C 0 0 0 0 0 0 
C 0 0 0 0 0 0 
C 0 0 0 0 0 0 
z
" style="stroke: #000000; stroke-opacity: 0"></path>
    </defs>
    <g clip-path="url(#p8c0d3c7d37)">
     <use xlink:href="#ma3ba1f1914" x="110.902269" y="242.552443" style="fill: #c371d2; fill-opacity: 0; stroke: #000000; stroke-opacity: 0"></use>
     <use xlink:href="#ma3ba1f1914" x="198.461305" y="46.118756" style="fill: #c371d2; fill-opacity: 0; stroke: #000000; stroke-opacity: 0"></use>
     <use xlink:href="#ma3ba1f1914" x="286.02034" y="236.768232" style="fill: #c371d2; fill-opacity: 0; stroke: #000000; stroke-opacity: 0"></use>
     <use xlink:href="#ma3ba1f1914" x="373.579376" y="224.383181" style="fill: #c371d2; fill-opacity: 0; stroke: #000000; stroke-opacity: 0"></use>
    </g>
   </g>
   <g id="legend_1">
    <g id="patch_21">
     <path d="M 348.677854 79.404646 
L 425.165354 79.404646 
L 425.165354 23.634646 
L 348.677854 23.634646 
z
" style="fill: #ffffff; stroke: #000000; stroke-linejoin: miter"></path>
    </g>
    <g id="patch_22">
     <path d="M 355.077854 36.113396 
L 371.077854 36.113396 
L 371.077854 30.513396 
L 355.077854 30.513396 
z
" style="fill: #009afa; stroke: #000000; stroke-linejoin: miter"></path>
    </g>
    <g id="text_13">
     <!-- simulans -->
     <g transform="translate(377.477854 36.113396) scale(0.08 -0.08)">
      <defs>
       <path id="DejaVuSans-69" d="M 603 3500 
L 1178 3500 
L 1178 0 
L 603 0 
L 603 3500 
z
M 603 4863 
L 1178 4863 
L 1178 4134 
L 603 4134 
L 603 4863 
z
" transform="scale(0.015625)"></path>
      </defs>
      <use xlink:href="#DejaVuSans-73"></use>
      <use xlink:href="#DejaVuSans-69" x="52.099609"></use>
      <use xlink:href="#DejaVuSans-6d" x="79.882812"></use>
      <use xlink:href="#DejaVuSans-75" x="177.294922"></use>
      <use xlink:href="#DejaVuSans-6c" x="240.673828"></use>
      <use xlink:href="#DejaVuSans-61" x="268.457031"></use>
      <use xlink:href="#DejaVuSans-6e" x="329.736328"></use>
      <use xlink:href="#DejaVuSans-73" x="393.115234"></use>
     </g>
    </g>
    <g id="patch_23">
     <path d="M 355.077854 47.855896 
L 371.077854 47.855896 
L 371.077854 42.255896 
L 355.077854 42.255896 
z
" style="fill: #e36f47; stroke: #000000; stroke-linejoin: miter"></path>
    </g>
    <g id="text_14">
     <!-- willistoni -->
     <g transform="translate(377.477854 47.855896) scale(0.08 -0.08)">
      <defs>
       <path id="DejaVuSans-77" d="M 269 3500 
L 844 3500 
L 1563 769 
L 2278 3500 
L 2956 3500 
L 3675 769 
L 4391 3500 
L 4966 3500 
L 4050 0 
L 3372 0 
L 2619 2869 
L 1863 0 
L 1184 0 
L 269 3500 
z
" transform="scale(0.015625)"></path>
      </defs>
      <use xlink:href="#DejaVuSans-77"></use>
      <use xlink:href="#DejaVuSans-69" x="81.787109"></use>
      <use xlink:href="#DejaVuSans-6c" x="109.570312"></use>
      <use xlink:href="#DejaVuSans-6c" x="137.353516"></use>
      <use xlink:href="#DejaVuSans-69" x="165.136719"></use>
      <use xlink:href="#DejaVuSans-73" x="192.919922"></use>
      <use xlink:href="#DejaVuSans-74" x="245.019531"></use>
      <use xlink:href="#DejaVuSans-6f" x="284.228516"></use>
      <use xlink:href="#DejaVuSans-6e" x="345.410156"></use>
      <use xlink:href="#DejaVuSans-69" x="408.789062"></use>
     </g>
    </g>
    <g id="patch_24">
     <path d="M 355.077854 59.598396 
L 371.077854 59.598396 
L 371.077854 53.998396 
L 355.077854 53.998396 
z
" style="fill: #3ea44e; stroke: #000000; stroke-linejoin: miter"></path>
    </g>
    <g id="text_15">
     <!-- sechellia -->
     <g transform="translate(377.477854 59.598396) scale(0.08 -0.08)">
      <use xlink:href="#DejaVuSans-73"></use>
      <use xlink:href="#DejaVuSans-65" x="52.099609"></use>
      <use xlink:href="#DejaVuSans-63" x="113.623047"></use>
      <use xlink:href="#DejaVuSans-68" x="168.603516"></use>
      <use xlink:href="#DejaVuSans-65" x="231.982422"></use>
      <use xlink:href="#DejaVuSans-6c" x="293.505859"></use>
      <use xlink:href="#DejaVuSans-6c" x="321.289062"></use>
      <use xlink:href="#DejaVuSans-69" x="349.072266"></use>
      <use xlink:href="#DejaVuSans-61" x="376.855469"></use>
     </g>
    </g>
    <g id="patch_25">
     <path d="M 355.077854 71.340896 
L 371.077854 71.340896 
L 371.077854 65.740896 
L 355.077854 65.740896 
z
" style="fill: #c371d2; stroke: #000000; stroke-linejoin: miter"></path>
    </g>
    <g id="text_16">
     <!-- grimshawi -->
     <g transform="translate(377.477854 71.340896) scale(0.08 -0.08)">
      <use xlink:href="#DejaVuSans-67"></use>
      <use xlink:href="#DejaVuSans-72" x="63.476562"></use>
      <use xlink:href="#DejaVuSans-69" x="104.589844"></use>
      <use xlink:href="#DejaVuSans-6d" x="132.373047"></use>
      <use xlink:href="#DejaVuSans-73" x="229.785156"></use>
      <use xlink:href="#DejaVuSans-68" x="281.884766"></use>
      <use xlink:href="#DejaVuSans-61" x="345.263672"></use>
      <use xlink:href="#DejaVuSans-77" x="406.542969"></use>
      <use xlink:href="#DejaVuSans-69" x="488.330078"></use>
     </g>
    </g>
   </g>
  </g>
 </g>
 <defs>
  <clipPath id="p8c0d3c7d37">
   <rect x="55.316291" y="19.634646" width="373.849064" height="240.030709"></rect>
  </clipPath>
 </defs>
</svg>